<svg width="1000" height="1000" xmlns="http://www.w3.org/2000/svg">
 <metadata>Svg Vector Icons : http://www.onlinewebfonts.com/icon</metadata>

 <g>
  <title>background</title>
  <rect fill="none" id="canvas_background" height="402" width="582" y="-1" x="-1"/>
 </g>
 <g>
  <title>Layer 1</title>
  <g stroke="null" id="svg_1">
   <g stroke="null" id="svg_2" transform="translate(0,511) scale(0.10000000149011612,-0.10000000149011612) ">
    <path fill="#d89638" stroke="null" id="svg_3" d="m4614.869539,329.082485c-72.617491,-3.388469 -85.07663,-6.829068 -105.511703,-32.894212c-30.652609,-38.576413 -28.358877,-78.299692 5.682201,-111.193904c26.065144,-26.065144 35.187944,-28.358877 147.476584,-28.358877l119.117708,0l0,-203.047471l0,-201.900605l-144.088116,-6.776937c-353.912524,-14.752871 -586.465739,-161.08259 -694.219044,-436.747552l-29.505743,-76.00596l-3.388469,-2005.556436l-2.293733,-2004.409569l1247.842701,0l1247.790571,0l-2.293733,2004.409569l-3.388469,2005.556436l-23.823542,62.399955c-39.723279,104.364836 -68.082156,152.011919 -129.335244,218.947209c-139.50065,153.158786 -351.670922,234.794817 -607.995548,234.794817l-106.658569,0l0,204.194338l0,204.194338l119.117708,0c112.28864,0 121.35931,2.293733 147.476584,28.358877c35.187944,34.041078 36.28268,74.859093 3.388469,113.435506l-26.065144,29.505743l-538.818656,2.293733c-296.047905,1.042606 -575.101336,1.042606 -620.506817,-1.198997zm745.306726,-376.5892l0,-204.194338l-204.194338,0l-204.194338,0l0,204.194338l0,204.194338l204.194338,0l204.194338,0l0,-204.194338zm482.100902,-400.464872c164.471058,-48.793949 285.882499,-138.405914 339.159653,-250.694554c46.500217,-97.535769 52.182418,-167.911657 52.182418,-598.924878l0,-406.094943l-584.172006,0l-584.224136,0l0,-811.095149l0,-811.043019l584.172006,0l584.172006,0l0,-640.889759l0,-640.889759l-1077.585181,0l-1077.637311,0l0,1858.079851c0,1262.543442 3.388469,1879.66179 12.459139,1923.868274c16.994474,95.294166 47.647083,158.788857 107.753305,222.335678c82.782897,89.611965 175.835461,136.112182 327.847381,164.471058c61.253088,12.459139 212.118141,14.752871 663.618565,12.459139c517.236716,-2.293733 592.14794,-4.535335 652.254162,-21.581939zm391.342071,-2066.809524l0,-640.889759l-493.465305,0l-493.465305,0l0,640.889759l0,640.94189l493.465305,0l493.465305,0l0,-640.94189z"/>
    <path fill="#d89638" stroke="null" id="svg_4" d="m4569.516189,-1122.902423c-43.111748,-4.535335 -82.782897,-47.647083 -82.782897,-89.611965c0,-14.752871 12.459139,-39.723279 28.358877,-54.424021l27.21201,-28.358877l613.677749,0l613.677749,0l27.21201,28.358877c35.187944,34.041078 36.28268,74.859093 3.388469,113.435506l-26.065144,29.505743l-584.224136,2.293733c-320.966183,1.042606 -601.16648,1.042606 -620.454686,-1.198997z"/>
    <path fill="#d89638" stroke="null" id="svg_5" d="m4515.092168,-3762.571681c-34.041078,-34.041078 -36.28268,-72.617491 -4.535335,-112.28864l22.676675,-29.505743l622.748419,0l622.748419,0l22.676675,29.505743c31.747345,39.723279 29.505743,78.299692 -4.535335,112.28864l-27.21201,28.358877l-613.677749,0l-613.677749,0l-27.21201,-28.358877z"/>
   </g>
  </g>
  <metadata transform="matrix(0.006399999713897708,0,0,0.006399999713897708,0,0) ">Svg Vector Icons : http://www.onlinewebfonts.com/icon</metadata>
  <g stroke="null" transform="rotate(-180 515.15087890625,196.731201171875) " id="svg_12">
   <g stroke="null" transform="matrix(0.41390641492835695,0,0,0.3914301311119726,-31755.20201055509,-30270.737361181) " id="svg_9">
    <g stroke="null" id="svg_10" transform="translate(0,511) scale(0.10000000149011612,-0.10000000149011612) ">
     <path fill="#d89638" stroke="null" id="svg_11" d="m778438.659235,-768409.657992c-56.7,-54.4 -56.7,-59 -56.7,-487.6c0,-428.6 0,-433.1 56.7,-487.6c43.1,-45.4 77.1,-56.7 170.1,-56.7c108.8,0 113.4,-2.3 113.4,-61.2c0,-154.2 -158.7,-675.8 -324.3,-1072.6c-43.1,-106.6 -192.8,-444.5 -331.1,-752.9c-138.3,-308.4 -285.7,-655.4 -326.6,-771l-72.6,-210.9l-6.8,-2426.5c-4.5,-1694 2.3,-2462.7 20.4,-2544.4c81.6,-396.9 403.7,-730.2 807.3,-834.5c192.8,-49.9 2136.2,-49.9 2331.2,0c390.1,102.1 691.7,405.9 793.7,798.2c29.5,111.1 34,473.9 34,2514.9c0,2281.3 -2.3,2390.2 -43.1,2553.5c-52.2,201.8 -133.8,403.7 -424.1,1045.4c-117.7,260.8 -269.7,614.6 -337.7,787c-127,319.8 -260.8,786.9 -260.8,909.4c0,63.5 2.3,65.8 113.4,65.8c93,0 127,11.3 170.1,56.7c56.7,54.4 56.7,59 56.7,487.6c0,428.6 0,433.1 -56.7,487.6l-54.4,56.7l-1158.9,0l-1158.8,0l-54.4,-56.9zm2120.3,-487.5l0,-181.4l-907.1,0l-907.1,0l0,181.4l0,181.4l907.1,0l907.1,0l0,-181.4zm-335.6,-682.6c49.9,-405.9 220,-868.5 739.3,-2031.9c113.4,-251.7 233.6,-542 265.3,-646.3l59,-188.2l-6.8,-2403.8l-6.8,-2403.8l-61.2,-115.6c-90.7,-172.4 -158.7,-242.7 -317.5,-328.8l-142.9,-77.1l-1099.9,0l-1099.8,0l-113.4,56.7c-145.1,70.3 -281.2,206.4 -351.5,351.5l-56.7,113.4l-6.8,2410.6l-4.5,2410.6l77.1,231.3c43.1,127 181.4,460.4 308.4,741.6c294.8,650.8 433.1,984.2 530.6,1288.1c79.4,247.2 149.7,548.8 149.7,646.3c0,29.5 6.8,61.2 15.9,70.3c9.1,6.8 260.8,11.3 560.1,9.1l546.5,-6.8l15.9,-127.2z"/>
    </g>
   </g>
  </g>
  <metadata transform="matrix(0.006399999713897708,0,0,0.006399999713897708,0,0) ">Svg Vector Icons : http://www.onlinewebfonts.com/icon</metadata>
  <g transform="rotate(136.10877990722656 287.9197387695313,262.63052368164057) " stroke="null" id="svg_21">
   <g transform="matrix(0.42110075953773124,0,0,0.46087964848741253,-32639.444593544686,-35701.26346002995) " stroke="null" id="svg_16">
    <g stroke="null" id="svg_17" transform="translate(0,511) scale(0.10000000149011612,-0.10000000149011612) ">
     <path fill="#d89638" stroke="null" id="svg_18" d="m781235.645046,-771204.200107l0,-875l-63.4,-91.9c-98.4,-146.6 -172.8,-306.2 -225.3,-490c-70,-245 -70,-686.9 0,-931.9c26.3,-96.3 65.6,-203.4 83.1,-238.4c32.8,-61.2 32.8,-70 0,-87.5c-111.6,-63.4 -325.9,-249.4 -435.3,-380.6c-142.2,-166.3 -297.5,-463.7 -358.8,-686.9c-37.2,-133.4 -39.4,-293.1 -39.4,-2530.9c0,-2377.8 0,-2388.8 45.9,-2447.8c24.1,-32.8 72.2,-80.9 105,-105c59.1,-45.9 78.8,-45.9 1588.1,-45.9c1509.4,0 1529.1,0 1588.1,45.9c32.8,24.1 80.9,72.2 105,105c45.9,59 45.9,70 45.9,2447.8c0,2237.8 -2.2,2397.5 -39.4,2530.9c-61.3,223.1 -216.6,520.6 -358.8,686.9c-109.4,131.3 -323.7,317.2 -435.3,380.6c-32.8,17.5 -32.8,26.3 0,87.5c89.7,172.8 131.3,400.3 131.3,704.4c0,393.8 -78.8,671.6 -269.1,949.4l-67.8,98.4l0,875l0,877.2l-700,0l-700,0l0,-877.2l0.2,0zm1050,352.2l0,-175l-350,0l-350,0l0,175l0,175l350,0l350,0l0,-175zm0,-940.6l0,-413.4l120.3,-177.2c168.4,-249.4 218.8,-420 218.8,-754.7c0,-293.1 -17.5,-365.3 -175,-702.2l-94.1,-201.2l210,-126.9c286.6,-175 518.4,-404.7 623.4,-621.3c150.9,-304.1 146.6,-220.9 146.6,-2727.8l0,-2259.7l-1400,0l-1400,0l0,2259.7c0,2506.9 -4.4,2423.7 146.6,2727.8c105,216.6 336.9,446.2 623.4,621.3l212.2,129.1l-72.2,144.4c-41.6,78.8 -100.6,218.8 -135.6,308.4c-54.7,148.7 -61.2,192.5 -61.2,448.4c-2.2,345.6 39.4,492.2 218.7,761.2l118.1,175l0,413.4l0,411.3l350,0l350,0l0,-415.6z"/>
     <path fill="#d89638" stroke="null" id="svg_19" d="m780885.645046,-777502.000107l0,-1575l1050,0l1050,0l0,1575l0,1575l-1050,0l-1050,0l0,-1575zm1750,0l0,-1225l-700,0l-700,0l0,1225l0,1225l700,0l700,0l0,-1225z"/>
    </g>
   </g>
  </g>
  <metadata transform="matrix(0.022499974966056158,0,0,0.022499974966056158,0,0) ">Svg Vector Icons : http://www.onlinewebfonts.com/icon</metadata>
  <g stroke="null" transform="rotate(-138.75625610351562 715.4999389648439,271.93713378906256) " id="svg_30">
   <g stroke="null" transform="matrix(0.40830405236015227,0,0,0.40830405236015227,-8438.705574879585,-8723.904569388977) " id="svg_25">
    <g stroke="null" id="svg_26" transform="translate(0,511) scale(0.10000000149011612,-0.10000000149011612) ">
     <path fill="#d89638" stroke="null" id="svg_27" d="m223500.809194,-211787.624043l0,-1472.2l-131.3,-72.2c-479.1,-262.5 -811.6,-737.2 -894.7,-1273.1c-19.7,-120.3 -24.1,-855.3 -19.7,-2727.8c6.6,-2548.4 6.6,-2563.8 52.5,-2622.8c24.1,-32.8 72.2,-80.9 105,-105c59.1,-45.9 78.8,-45.9 1588.1,-45.9c1509.4,0 1529.1,0 1588.1,45.9c32.8,24.1 80.9,72.2 105,105c45.9,59 45.9,74.4 52.5,2611.9c4.4,1804.7 0,2603.1 -17.5,2725.6c-76.6,538.1 -413.4,1021.6 -896.9,1286.3l-131.2,72.2l0,1472.1l0,1470l-700,0l-700,0l0,-1470l0.1,0zm1050,945l0,-175l-350,0l-350,0l0,175l0,175l350,0l350,0l0,-175zm0,-1585.9l0,-1061l181.6,-85.3c347.8,-161.9 573.1,-376.3 728.4,-695.6c144.4,-297.5 140,-192.5 140,-2975l0,-2522.2l-1400,0l-1400,0l0,2522.2c0,2754.1 -2.2,2679.7 126.9,2955.3c150.9,319.4 374.1,535.9 721.9,704.4l201.3,98.4l0,1058.7l0,1061l350,0l350,0l0,-1060.9l-0.1,0z"/>
     <path fill="#d89638" stroke="null" id="svg_28" d="m223150.809194,-217667.624043l0,-1400l1050,0l1050,0l0,1400l0,1400l-1050,0l-1050,0l0,-1400zm1750,0l0,-1050l-700,0l-700,0l0,1050l0,1050l700,0l700,0l0,-1050z"/>
    </g>
   </g>
  </g>
  <path stroke="null" transform="rotate(-105.9592514038086 559.0242919921875,464.7117919921875) " id="svg_33" d="m530.706304,442.959864c-12.101272,-40.826109 88.94602,73.524787 47.69235,48.881759c-41.25367,-24.643028 -35.591078,-8.055651 -47.69235,-48.881759z" stroke-opacity="null" stroke-width="null" fill="#d89638"/>
  <path stroke="null" transform="rotate(-83.63330841064453 470.86019897460943,461.6246948242188) " id="svg_34" d="m442.046085,483.577439c-12.313286,41.20308 90.504353,-74.203685 48.527919,-49.333113c-41.976434,24.870571 -36.214633,8.130034 -48.527919,49.333113z" stroke-opacity="null" stroke-width="null" fill="#d89638"/>
  <path stroke="null" transform="rotate(-36.799808502197266 514.2738647460939,448.19122314453114) " id="svg_35" d="m490.775023,485.463499c24.809219,25.884503 93.188921,-129.829966 39.686579,-58.703693c-53.502342,71.126272 -64.495797,32.819192 -39.686579,58.703693z" stroke-opacity="null" stroke-width="null" fill="#d89638"/>
  <path stroke="null" transform="rotate(-146.0951385498047 519.0177001953125,442.00341796874994) " id="svg_32" d="m499.432021,405.010535c20.677871,-25.690467 77.670664,128.856732 33.077783,58.263637c-44.592881,-70.593094 -53.755654,-32.573172 -33.077783,-58.263638z" stroke-opacity="null" stroke-width="null" fill="#d89638"/>
 </g>
</svg>