<svg width="1350" height="968" viewBox="0 0 1350 968" fill="none" xmlns="http://www.w3.org/2000/svg">
<path d="M30 3H1319V965H30V3Z" fill="#292E31"/>
<path d="M4 33.0896H1343V929H4V33.0896Z" fill="#292E31"/>
<path d="M1319.5 3V1.5H1318H31H29.5V3V31.8797H4H2.49499L2.50001 33.3847L5.50001 933.41L5.50499 934.905H7H32.5V965V966.5H34H1321H1322.5V965V934.905H1346H1347.51L1347.5 933.4L1344.5 33.3747L1344.49 31.8797H1343H1319.5V3ZM35.5 8.14557H1313.5V28.2342H35.5V8.14557ZM38.495 928.259L35.5051 38.5253H1313.51L1316.49 928.259H38.495ZM29.4949 928.259H11.495L8.50505 38.5253H26.505L29.4949 928.259ZM1316.5 959.854H38.5V938.551H1316.5V959.854ZM1341.49 928.259H1325.49L1322.51 38.5253H1338.51L1341.49 928.259Z" fill="#D89638" stroke="black" stroke-width="3"/>
</svg>
