<?xml version="1.0" encoding="iso-8859-1"?>
<!-- Generator: Adobe Illustrator 19.0.0, SVG Export Plug-In . SVG Version: 6.00 Build 0)  -->
<svg version="1.1" id="Capa_1" xmlns="http://www.w3.org/2000/svg" xmlns:xlink="http://www.w3.org/1999/xlink" x="0px" y="0px"
	 viewBox="0 0 512.001 512.001" style="enable-background:new 0 0 512.001 512.001;" xml:space="preserve">
<g>
	<g>
		<path d="M259.4,133.981h-2.09l-16.872-45.044c-3.403-9.08-9.835-16.861-18.112-21.911l-22.335-13.623V17.611
			C199.991,7.901,192.09,0,182.378,0h-55.314c-9.711,0-17.611,7.901-17.611,17.611v35.792L87.117,67.027
			c-8.277,5.049-14.71,12.831-18.112,21.912l-16.872,45.042h-2.091c-8.192,0-14.856,6.665-14.856,14.857v15.034
			c0,7.083,4.986,13.015,11.63,14.494l2.13,84.796c0.026,1.04,0.092,2.086,0.194,3.107l22.741,227.383
			C72.928,504.112,81.644,512,92.156,512h125.131c10.51,0,19.226-7.887,20.274-18.347l22.74-227.38
			c0.104-1.033,0.169-2.079,0.195-3.111l2.13-84.795c6.644-1.479,11.63-7.411,11.63-14.494v-15.034
			C274.257,140.646,267.592,133.981,259.4,133.981z M127.065,15.011h55.314c1.434,0,2.601,1.166,2.601,2.6v32.525h-60.514V17.611
			h-0.001C124.465,16.177,125.631,15.011,127.065,15.011z M245.489,262.783c-0.017,0.659-0.059,1.328-0.125,1.993l-22.74,227.382
			c-0.276,2.753-2.569,4.83-5.336,4.83H92.156c-2.767,0-5.061-2.076-5.336-4.829L64.079,264.773
			c-0.065-0.653-0.108-1.322-0.124-1.989l-2.111-84.054h185.757L245.489,262.783z M259.245,163.718H50.199v-14.725h42.307
			c4.146,0,7.506-3.36,7.506-7.506s-3.36-7.506-7.506-7.506H68.164l14.899-39.776c2.23-5.952,6.446-11.053,11.872-14.362
			l24.092-14.695h71.39l24.091,14.694c5.425,3.31,9.641,8.411,11.872,14.362l14.899,39.777H127.464c-4.146,0-7.506,3.36-7.506,7.506
			s3.36,7.506,7.506,7.506h131.781V163.718z"/>
	</g>
</g>
<g>
	<g>
		<path d="M476.815,255.017c0-9.852-8.015-17.868-17.867-17.868h-151.5c-9.852,0-17.868,8.015-17.868,17.868
			c0,9.459,7.395,17.204,16.705,17.808l5.391,20.664c0.881,3.376,3.924,5.613,7.258,5.613c0.626,0,1.265-0.079,1.9-0.245
			c4.011-1.046,6.414-5.147,5.367-9.158l-4.387-16.815h122.767l-32.467,124.442h-57.832l-19.174-73.494
			c-1.047-4.01-5.142-6.418-9.158-5.367c-4.011,1.047-6.414,5.147-5.367,9.158l18.225,69.854c-3.43,0.693-6.012,3.722-6.012,7.356
			c0,3.342,2.185,6.171,5.204,7.143l-22.814,64.57c-8.407,1.45-14.828,8.775-14.828,17.588c0,9.851,8.015,17.867,17.868,17.867
			h129.946c9.852,0,17.868-8.015,17.868-17.867c0-8.814-6.421-16.139-14.828-17.588l-22.788-64.499
			c3.146-0.894,5.453-3.782,5.453-7.214c0-3.726-2.716-6.808-6.275-7.396l32.51-124.611
			C469.42,272.222,476.815,264.477,476.815,255.017z M448.171,491.279c1.574,0,2.856,1.28,2.856,2.855s-1.281,2.855-2.856,2.855
			H318.226c-1.574,0-2.856-1.28-2.856-2.855s1.281-2.855,2.856-2.855h129.93C448.171,491.279,448.156,491.279,448.171,491.279z
			 M435.192,476.267H331.205l22.587-63.929h58.813L435.192,476.267z M307.449,257.872c-1.574,0-2.856-1.28-2.856-2.855
			c0-1.574,1.281-2.856,2.856-2.856h151.5c1.574,0,2.855,1.281,2.855,2.856c0,1.574-1.28,2.855-2.855,2.855H307.449z"/>
	</g>
</g>
<g>
</g>
<g>
</g>
<g>
</g>
<g>
</g>
<g>
</g>
<g>
</g>
<g>
</g>
<g>
</g>
<g>
</g>
<g>
</g>
<g>
</g>
<g>
</g>
<g>
</g>
<g>
</g>
<g>
</g>
</svg>
