<svg width="1928" height="1222" viewBox="0 0 1928 1222" fill="none" xmlns="http://www.w3.org/2000/svg">
<mask id="path-1-outside-1" maskUnits="userSpaceOnUse" x="-0.595703" y="0.135742" width="1928" height="1222" fill="black">
<rect fill="white" x="-0.595703" y="0.135742" width="1928" height="1222"/>
<path d="M24.005 1068V23.1357H1904.01V804.692H710.605C534.982 782.21 179.695 962.485 24.005 1068Z"/>
<path d="M213.732 1103.64C213.732 1155.83 171.199 1198.14 118.732 1198.14C66.2647 1198.14 23.7318 1155.83 23.7318 1103.64C19 867.5 66.2647 1009.14 118.732 1009.14C171.199 1009.14 213.732 1051.45 213.732 1103.64Z"/>
</mask>
<path d="M24.005 1068V23.1357H1904.01V804.692H710.605C534.982 782.21 179.695 962.485 24.005 1068Z" fill="#292E31"/>
<path d="M213.732 1103.64C213.732 1155.83 171.199 1198.14 118.732 1198.14C66.2647 1198.14 23.7318 1155.83 23.7318 1103.64C19 867.5 66.2647 1009.14 118.732 1009.14C171.199 1009.14 213.732 1051.45 213.732 1103.64Z" fill="#292E31"/>
<path d="M24.005 23.1357V0.135742H1.00496V23.1357H24.005ZM24.005 1068H1.00496V1111.37L36.9085 1087.04L24.005 1068ZM710.605 804.692L707.684 827.506L709.139 827.692H710.605V804.692ZM1904.01 804.692V827.692H1927.01V804.692H1904.01ZM1904.01 23.1357H1927.01V0.135742H1904.01V23.1357ZM23.7318 1103.64H46.7318V1103.41L46.7272 1103.18L23.7318 1103.64ZM1.00496 23.1357V1068H47.005V23.1357H1.00496ZM36.9085 1087.04C113.461 1035.16 239.892 964.409 368.84 909.509C433.27 882.078 497.853 858.809 556.802 843.8C616.135 828.693 667.991 822.424 707.684 827.506L713.525 781.878C665.407 775.718 606.994 783.553 545.452 799.222C483.525 814.989 416.626 839.168 350.821 867.185C219.297 923.181 90.2396 995.327 11.1015 1048.96L36.9085 1087.04ZM710.605 827.692H1904.01V781.692H710.605V827.692ZM1927.01 804.692V23.1357H1881.01V804.692H1927.01ZM1904.01 0.135742H24.005V46.1357H1904.01V0.135742ZM190.732 1103.64C190.732 1143.01 158.611 1175.14 118.732 1175.14V1221.14C183.787 1221.14 236.732 1168.64 236.732 1103.64H190.732ZM118.732 1175.14C78.8527 1175.14 46.7318 1143.01 46.7318 1103.64H0.731772C0.731772 1168.64 53.6768 1221.14 118.732 1221.14V1175.14ZM46.7272 1103.18C45.5424 1044.05 47.7414 1011.24 51.6154 994.408C53.6611 985.518 55.3285 985.138 53.5732 986.776C52.1989 988.06 49.9193 989.403 47.0341 989.857C44.4398 990.265 42.748 989.734 42.5484 989.668C42.402 989.619 43.0056 989.812 44.5255 990.768C45.9922 991.691 47.8132 993.005 50.1065 994.818C55.6127 999.17 59.1984 1002.51 66.5353 1008.51C77.6922 1017.62 96.4065 1032.14 118.732 1032.14V986.136C114.824 986.136 107.955 982.946 95.6409 972.885C91.2424 969.291 83.621 962.674 78.631 958.73C73.2331 954.463 65.6144 948.851 57.016 946.002C52.3707 944.463 46.4565 943.382 39.8862 944.415C33.0249 945.495 27.0155 948.639 22.1806 953.153C13.504 961.255 9.32664 973.055 6.78684 984.093C1.48995 1007.11 -0.444773 1045.15 0.736389 1104.1L46.7272 1103.18ZM118.732 1032.14C158.611 1032.14 190.732 1064.26 190.732 1103.64H236.732C236.732 1038.63 183.787 986.136 118.732 986.136V1032.14Z" fill="#D89638" mask="url(#path-1-outside-1)"/>
<path d="M349.692 456.8C349.692 461.779 350.626 465.969 352.518 469.371C354.395 472.791 356.844 474.492 359.86 474.492V718.487C356.84 718.487 354.395 720.045 352.518 723.142C350.631 726.259 349.692 730.287 349.692 735.247V737.11C339.523 740.226 330.767 747.818 323.424 759.928C316.081 772.033 311.466 786.47 309.584 803.231H308.455C305.434 803.231 302.989 804.789 301.112 807.887C299.225 811.003 298.286 815.954 298.286 820.914C298.286 820.914 183.34 876.571 108.135 924.05C106.568 916.214 107.581 915.79 105.885 912.996C104.188 910.203 102.213 908.193 99.9547 906.944L93.8063 735.243V570.406C92.677 536.879 89.0938 510.337 83.0753 490.783C77.0568 471.224 71.4055 456.791 66.1306 447.479C64.2531 443.755 63.2165 440.496 63.0213 437.702C62.8354 434.909 63.8673 433.512 66.1306 433.512C69.1469 433.512 73.1016 433.835 77.9908 434.443C82.8892 435.07 88.1596 436.001 93.8063 437.237V144.822L85.3337 77.77C87.5924 76.5346 89.5721 74.511 91.2638 71.7175C92.9601 68.9241 93.8063 65.3608 93.8063 61.0093H288.122C288.122 65.9877 289.056 70.0166 290.947 73.1143C292.825 76.2304 295.27 77.77 298.29 77.77H299.42C301.302 93.9223 305.917 108.037 313.26 120.142C320.603 132.247 329.359 140.167 339.528 143.891C339.147 143.891 338.965 144.214 338.965 144.822C338.965 149.801 339.997 153.83 342.07 156.927C344.133 160.043 346.675 161.583 349.696 161.583V356.222C346.68 356.222 344.138 357.78 342.07 360.878C339.997 363.994 338.965 368.023 338.965 372.983C338.965 373.609 339.151 374.232 339.528 374.845C324.461 379.823 312.981 393.164 305.071 414.889C309.589 427.317 315.71 437.398 323.429 445.156C331.139 452.928 339.895 456.8 349.692 456.8ZM283.038 483.269H277.953H275.127C259.312 483.269 245.472 489.63 233.611 502.33C221.746 515.048 214.496 531.011 211.866 550.22C219.014 551.474 224.944 556.434 229.661 565.104C234.364 573.775 236.721 584.313 236.721 596.708C236.721 609.108 234.267 619.494 229.378 627.861C224.479 636.227 218.451 641.03 211.304 642.266V643.197H210.174H208.478C206.591 643.197 204.806 642.893 203.11 642.266C201.414 641.653 199.625 640.722 197.742 639.472C193.225 637.001 189.832 632.664 187.574 626.464C183.056 619.028 180.793 609.104 180.793 596.708C180.793 586.798 182.206 573.789 185.032 557.669C187.857 541.549 192.091 523.88 197.742 504.658C203.389 485.449 210.356 465.923 218.642 446.092C226.919 426.257 236.34 407.661 246.885 390.287L272.302 348.455L272.869 349.386V180.155L251.969 145.758H180.798L170.629 162.491V438.638C176.276 436.79 181.546 435.554 186.445 434.927C191.334 434.314 195.288 433.996 198.309 433.996C200.568 433.996 201.6 435.393 201.414 438.186C201.219 440.98 200.187 444.225 198.309 447.936C195.288 452.9 192.184 459.4 188.987 467.462C185.784 475.525 182.861 485.288 180.231 496.752C177.591 508.216 175.332 521.548 173.45 536.741C171.563 551.935 170.625 569.133 170.625 588.337V594.841V718.51L180.793 735.243H262.7L283.033 701.777V483.269H283.038Z" fill="#D89638"/>
<path d="M702.731 377.26C704.99 377.26 706.022 378.569 705.841 381.174C705.645 383.792 704.613 386.397 702.731 389.001C700.091 393.182 697.173 398.663 693.975 405.439C690.773 412.229 687.762 420.448 684.936 430.096C682.11 439.758 679.754 450.974 677.877 463.756C675.99 476.548 675.051 491.032 675.051 507.202V613.663C672.035 613.663 669.581 614.972 667.689 617.576C665.803 620.195 664.854 623.583 664.854 627.754V629.322C655.039 631.94 646.46 638.324 639.098 648.503C631.736 658.681 628.158 665.282 626.276 679.374H625.137C622.121 679.374 619.667 680.683 617.775 683.287C615.888 685.905 614.95 689.294 614.95 693.465C614.95 693.465 514.959 728.148 482.58 741.517C481.911 741.793 480.298 742.328 480.298 742.328C480.298 742.328 479.355 734.307 477.463 731.689C475.576 729.084 473.132 727.775 470.111 727.775H468.972C474.745 708.788 462.466 658.681 455.109 648.503C447.747 638.324 439.159 631.94 429.353 629.322V627.754C429.353 623.583 428.409 620.195 426.517 617.576C424.631 614.972 422.177 613.663 419.156 613.663V504.856C419.156 489.202 418.222 475.11 416.33 462.585C414.453 450.061 412.092 439.099 409.271 429.709C406.445 420.315 403.438 412.229 400.231 405.444C397.034 398.668 394.115 393.187 391.476 389.006C389.598 386.401 388.561 383.797 388.371 381.179C388.185 378.574 389.217 377.265 391.476 377.265C394.497 377.265 398.447 377.532 403.336 378.049C408.234 378.574 413.505 379.616 419.151 381.179V145.551C422.168 145.551 424.621 144.255 426.513 141.637C428.4 139.033 429.348 135.644 429.348 131.459V129.892C439.154 127.287 447.743 120.889 455.104 110.711C462.466 100.533 467.081 88.6719 468.967 75.0918H470.106C473.122 75.0918 475.567 73.7964 477.459 71.1782C479.346 68.5737 480.293 65.1856 480.293 61H613.904C613.904 65.181 614.838 68.5691 616.73 71.1782C618.617 73.7964 621.07 75.0918 624.091 75.0918H625.23C627.107 88.6672 631.736 100.533 639.093 110.711C646.455 120.889 655.034 127.282 664.85 129.892V131.459C664.85 135.644 665.793 139.028 667.684 141.637C669.571 144.255 672.026 145.551 675.046 145.551V381.174C681.065 379.607 686.433 378.569 691.145 378.044C695.853 377.528 699.71 377.26 702.731 377.26ZM598.233 159.642L577.449 131.463H516.781L495.997 159.642V599.58L516.781 627.759H577.449L598.233 599.58V159.642Z" fill="#D89638"/>
<path d="M976.841 61.7329H699.494C697.235 63.4892 695.725 64.3604 694.977 64.3604V123.498C697.607 123.498 700.344 124.595 703.165 126.785C705.991 128.983 707.404 132.482 707.404 137.299C707.775 138.184 708.905 139.927 710.792 142.554C712.674 145.182 714.747 148.367 717.005 152.082C719.264 155.807 721.806 159.638 724.632 163.584C727.458 167.525 730.186 171.037 732.821 174.098C740.35 182.866 745.053 192.611 746.944 203.337C748.822 214.078 747.693 223.164 743.556 230.608C742.427 229.294 741.484 228.423 740.731 227.981C736.962 225.353 732.909 224.265 728.587 224.694C724.255 225.137 720.58 227.322 717.573 231.263C711.926 236.96 710.415 244.188 713.055 252.947C713.808 254.26 714.468 255.689 715.03 257.22C715.597 258.759 716.443 260.179 717.573 261.493C717.944 261.936 718.223 262.148 718.418 262.148C718.604 262.148 718.888 262.373 719.264 262.807C724.911 268.947 730.562 270.689 736.209 268.062C741.856 265.434 746.94 260.073 751.462 251.965C755.979 243.866 759.934 233.895 763.322 222.066C766.71 210.238 769.155 198.198 770.665 185.927C771.037 183.742 772.543 182.211 775.183 181.326H776.312V123.498H790.436L799.475 134.667V329.168C794.195 327.854 789.116 326.978 784.222 326.54C779.323 326.107 775.369 325.881 772.362 325.881C770.103 325.881 769.062 326.978 769.257 329.168C769.443 331.366 770.475 333.551 772.362 335.736C774.992 339.249 777.818 343.624 780.834 348.879C783.841 354.134 786.667 360.375 789.306 367.603C791.937 374.831 794.196 383.156 796.082 392.574C797.96 402 799.094 412.616 799.47 424.44V529.605C802.268 529.739 805.071 529.891 807.869 530.052C830.451 531.389 853.53 533.777 876.293 532.671V435.614C876.293 422.043 877.227 409.883 879.119 399.147C880.996 388.42 883.358 378.892 886.179 370.562C889.004 362.247 892.011 355.235 895.218 349.538C898.415 343.849 901.334 339.249 903.973 335.741C905.851 333.551 906.888 331.366 907.083 329.172C907.269 326.983 906.237 325.886 903.973 325.886C900.953 325.886 897.002 326.111 892.113 326.545C887.215 326.987 881.944 327.858 876.298 329.172V134.013L886.466 122.843H899.456V180.008C900.204 180.008 900.586 180.234 900.586 180.667C902.463 180.667 904.159 181.981 905.67 184.608C907.171 196.879 909.625 208.92 913.013 220.748C916.401 232.577 920.356 242.547 924.873 250.646C929.391 258.759 934.378 264.116 939.843 266.743C945.299 269.371 951.043 267.628 957.071 261.488L958.201 260.175C960.831 257.114 962.341 254.26 962.718 251.633C965.348 243.746 963.847 236.522 958.201 229.949C955.18 226.446 951.508 224.362 947.186 223.708C942.85 223.053 938.802 224.261 935.042 227.322C934.661 227.764 934.285 228.091 933.913 228.308C933.532 228.534 933.155 228.861 932.783 229.294C928.633 221.85 927.416 212.866 929.112 202.356C930.808 191.841 935.414 182.211 942.952 173.444C945.582 170.383 948.32 166.769 951.141 162.602C953.966 158.444 956.597 154.503 959.051 150.773C961.496 147.058 963.568 143.873 965.265 141.245C966.961 138.618 968.178 137.087 968.936 136.645C968.936 131.39 970.349 127.776 973.175 125.803C976 123.83 978.542 122.848 980.801 122.848V63.0467C978.905 63.0467 977.594 62.6134 976.841 61.7329Z" fill="#D89638"/>
<path d="M1287.7 61.7329H1010.35C1008.09 63.2956 1006.58 64.07 1005.83 64.07V116.653C1008.46 116.653 1011.2 117.63 1014.02 119.575C1016.85 121.53 1018.26 124.641 1018.26 128.923C1018.63 129.707 1019.76 131.261 1021.65 133.598C1023.53 135.935 1025.6 138.765 1027.86 142.07C1030.12 145.385 1032.66 148.791 1035.49 152.295C1038.32 155.798 1041.04 158.923 1043.68 161.643C1051.21 169.438 1055.91 178.104 1057.8 187.641C1059.68 197.188 1058.55 205.269 1054.41 211.888C1053.28 210.722 1052.34 209.943 1051.59 209.551C1047.82 207.214 1043.77 206.246 1039.44 206.629C1035.11 207.021 1031.44 208.966 1028.43 212.469C1022.78 217.535 1021.27 223.961 1023.91 231.747C1024.67 232.918 1025.33 234.185 1025.89 235.545C1026.45 236.914 1027.3 238.173 1028.43 239.344C1028.8 239.735 1029.08 239.929 1029.28 239.929C1029.46 239.929 1029.75 240.132 1030.12 240.514C1035.77 245.972 1041.42 247.526 1047.07 245.189C1052.71 242.851 1057.8 238.085 1062.32 230.876C1066.84 223.675 1070.79 214.811 1074.18 204.292C1077.57 193.777 1080.01 183.069 1081.52 172.158C1081.89 170.212 1083.4 168.852 1086.04 168.069H1087.17V116.648H1101.29L1110.33 126.582V299.514C1105.05 298.347 1099.97 297.568 1095.08 297.176C1090.18 296.794 1086.23 296.591 1083.22 296.591C1080.96 296.591 1079.92 297.568 1080.11 299.514C1080.3 301.468 1081.33 303.413 1083.22 305.354C1085.85 308.475 1088.67 312.365 1091.69 317.04C1094.7 321.714 1097.52 327.264 1100.16 333.69C1102.79 340.116 1105.05 347.519 1106.94 355.89C1108.82 364.27 1109.95 373.711 1110.33 384.226V530.324C1135.96 530.997 1161.59 533.523 1187.23 534.077L1187.15 394.155C1187.15 382.087 1188.08 371.277 1189.97 361.73C1191.85 352.193 1194.21 343.72 1197.03 336.317C1199.86 328.923 1202.86 322.686 1206.07 317.62C1209.27 312.564 1212.19 308.475 1214.83 305.349C1216.7 303.404 1217.74 301.459 1217.94 299.509C1218.12 297.564 1217.09 296.586 1214.83 296.586C1211.81 296.586 1207.86 296.789 1202.97 297.172C1198.07 297.564 1192.8 298.343 1187.15 299.509V125.996L1197.32 116.062H1210.31V166.889C1211.06 166.889 1211.44 167.092 1211.44 167.474C1213.32 167.474 1215.01 168.645 1216.52 170.977C1218.02 181.884 1220.48 192.592 1223.87 203.112C1227.25 213.626 1231.21 222.491 1235.73 229.695C1240.24 236.91 1245.23 241.671 1250.7 244.009C1256.15 246.346 1261.9 244.792 1267.92 239.334L1269.05 238.168C1271.68 235.448 1273.19 232.908 1273.57 230.571C1276.2 223.56 1274.7 217.134 1269.05 211.294C1266.03 208.182 1262.36 206.329 1258.04 205.744C1253.7 205.158 1249.65 206.237 1245.89 208.957C1245.51 209.348 1245.14 209.643 1244.77 209.832C1244.38 210.035 1244.01 210.326 1243.64 210.708C1239.49 204.089 1238.27 196.105 1239.96 186.756C1241.66 177.408 1246.27 168.848 1253.8 161.048C1256.44 158.329 1259.17 155.116 1261.99 151.409C1264.82 147.712 1267.45 144.209 1269.9 140.895C1272.35 137.59 1274.42 134.759 1276.12 132.422C1277.81 130.085 1279.03 128.725 1279.79 128.333C1279.79 123.659 1281.2 120.446 1284.03 118.695C1286.85 116.943 1289.4 116.067 1291.65 116.067V62.8992C1289.76 62.8992 1288.45 62.5166 1287.7 61.7329Z" fill="#D89638"/>
<path d="M1322.55 372.577V459.552L1318.4 530.256C1324.99 530.38 1331.57 530.634 1338.16 531.012C1370.2 532.842 1402.28 528.55 1434.01 533.155C1435.48 532.975 1444.17 534.271 1445.63 534.077C1484.01 529.057 1513.68 533.478 1552.52 533.155C1551.62 505.704 1551.91 471.846 1551.6 466.707C1551.04 457.169 1550.48 448.817 1549.91 441.662C1549.35 434.508 1548.3 428.174 1546.8 422.67C1545.29 417.167 1542.09 412.031 1537.2 407.256C1527.79 397.718 1521.85 387.351 1519.41 376.154C1516.95 364.962 1518.56 355.148 1524.21 346.703C1528.72 351.105 1534.18 353.221 1540.59 353.032C1546.99 352.852 1552.64 350.557 1557.53 346.15C1562.05 341.748 1564.31 336.336 1564.31 329.91C1564.31 323.493 1562.05 318.072 1557.53 313.67C1556.78 312.569 1556.02 312.02 1555.28 312.02C1547.74 305.414 1540.39 303.487 1533.25 306.239C1526.09 308.991 1519.59 314.772 1513.76 323.581C1507.92 332.39 1502.83 343.218 1498.51 356.061C1494.18 368.912 1491.07 381.935 1489.19 395.146C1487.3 398.451 1484.67 400.102 1481.28 400.102V459.552H1410.11L1399.38 449.642V363.773C1400.51 343.596 1404.08 327.628 1410.11 315.883C1416.13 304.142 1421.78 295.333 1427.05 289.46C1428.93 287.626 1429.97 285.796 1430.16 283.956C1430.34 282.122 1429.31 281.204 1427.05 281.204C1424.04 281.204 1420.08 281.393 1415.19 281.753C1410.29 282.122 1404.83 282.855 1398.81 283.956L1399.38 111.107L1407.85 70.9203C1405.59 70.1874 1403.61 68.9935 1401.92 67.3432C1400.22 65.693 1399.38 63.5864 1399.38 61.0142H1322.55C1322.55 63.5864 1321.71 65.693 1320.01 67.3432C1318.31 68.9935 1316.34 70.192 1314.08 70.9203L1322.55 111.107V283.956C1316.53 282.855 1311.17 282.122 1306.45 281.753C1301.75 281.393 1297.89 281.204 1294.87 281.204C1292.24 281.204 1291.11 282.126 1291.49 283.956C1291.87 285.796 1293 287.63 1294.87 289.46C1297.51 292.401 1300.43 296.255 1303.63 301.021C1306.83 305.797 1309.84 311.577 1312.67 318.363C1315.49 325.158 1317.84 333.045 1319.73 342.034C1321.6 351.027 1322.55 361.21 1322.55 372.577Z" fill="#D89638"/>
<path d="M1571.39 282.495C1574.03 285.348 1576.95 289.082 1580.15 293.701C1583.35 298.329 1586.27 303.935 1588.9 310.513C1591.53 317.1 1593.79 324.84 1595.68 333.727C1597.56 342.624 1598.51 352.59 1598.51 363.616C1598.51 363.976 1598.6 364.243 1598.79 364.418C1598.98 364.603 1599.07 364.87 1599.07 365.22V447.945L1593.48 533.224C1605.02 533.178 1616.55 533.114 1628.08 533.021C1663.15 532.745 1698.21 532.289 1733.27 531.901C1765.91 531.542 1798.56 531.251 1831.2 531.21C1831.16 500.293 1831.07 460.12 1830.95 454.196C1830.76 445.046 1830.01 436.919 1828.69 429.797C1827.37 422.684 1825.39 416.457 1822.76 411.119C1820.12 405.781 1816.55 400.802 1812.03 396.174C1802.23 386.927 1796.22 376.878 1793.96 366.018C1791.7 355.167 1793.2 345.652 1798.47 337.465C1803.36 341.734 1809.01 343.785 1815.42 343.601C1821.82 343.426 1827.28 341.199 1831.8 336.931C1836.32 332.662 1838.58 327.416 1838.58 321.189C1838.58 314.966 1836.32 309.715 1831.8 305.442L1830.11 303.842C1822.57 297.44 1815.22 295.568 1808.08 298.237C1800.92 300.906 1794.32 306.511 1788.31 315.049C1782.28 323.586 1777.1 334.087 1772.77 346.537C1768.44 358.997 1765.33 371.623 1763.46 384.429C1761.95 387.632 1759.31 389.232 1755.55 389.232V438.869L1747.13 447.406H1686L1675.9 437.292V331.925C1677.03 324.12 1678.35 316.671 1679.86 309.577C1681.36 302.487 1683.33 296.278 1685.79 290.954C1688.23 285.634 1691.43 281.108 1695.39 277.378C1699.34 273.658 1704.52 271.257 1710.92 270.192C1711.67 279.425 1715.53 287.321 1722.5 293.886C1729.46 300.45 1738.03 303.727 1748.2 303.727C1758.37 303.727 1767.03 300.358 1774.19 293.623C1781.33 286.883 1784.92 278.72 1784.92 269.141V265.412C1784.16 253.33 1780.59 244.797 1774.19 239.81C1767.78 234.831 1759.59 232.429 1749.62 232.605C1739.63 232.789 1728.24 235.366 1715.44 240.344C1702.63 245.332 1689.26 251.735 1675.34 259.557L1675.91 119.193L1686 109.586H1747.15L1757.24 119.193V201.383C1762.13 201.383 1765.15 203.167 1766.28 206.721L1825.03 166.696C1824.27 165.276 1823.9 163.851 1823.9 162.427C1823.9 159.583 1824.83 157.273 1826.72 155.489C1828.6 153.715 1831.04 152.82 1834.06 152.82V109.591L1842.54 70.63C1836.89 69.5605 1834.06 66.3614 1834.06 61.0234H1599.08C1599.08 63.5173 1598.23 65.5594 1596.54 67.1589C1594.84 68.7585 1592.87 69.9201 1590.61 70.63L1599.08 109.591V277.162C1593.05 276.092 1587.69 275.387 1582.98 275.027C1578.28 274.677 1574.42 274.493 1571.4 274.493C1568.77 274.493 1567.64 275.387 1568.01 277.162C1568.38 278.946 1569.51 280.72 1571.39 282.495Z" fill="#D89638"/>
<path d="M802.769 655.726V716.421C802.769 725.526 799.357 732.878 792.54 738.493C785.722 744.112 776.752 746.914 765.64 746.914H711.088V736.169C720.429 736.169 725.105 733.459 725.105 728.038V562.505C725.105 557.088 720.429 554.373 711.088 554.373V543.628H761.476C773.09 543.628 782.436 546.435 789.51 552.05C796.578 557.669 800.119 565.021 800.119 574.121V613.617C800.119 621.559 796.076 627.75 787.994 632.203C797.842 637.236 802.769 645.078 802.769 655.726ZM761.476 627.266C772.844 627.266 778.523 624.173 778.523 617.973V574.411C778.523 563.569 772.839 558.148 761.476 558.148H746.701V627.266H761.476ZM765.64 732.394C775.995 732.394 781.172 727.07 781.172 716.421V656.016C781.172 646.534 775.995 641.786 765.64 641.786H746.697V732.394H765.64Z" fill="#D89638" stroke="black" stroke-miterlimit="10"/>
<path d="M930.739 703.353L927.709 728.038V729.199C927.709 733.846 931.622 736.169 939.453 736.169V746.914H891.338V736.169C899.671 736.169 904.597 733.947 906.112 729.49L928.086 562.505V561.343C928.086 556.696 924.298 554.373 916.718 554.373V543.628H958.392L983.395 729.199C984.655 733.846 989.581 736.169 998.17 736.169V746.914H950.054V736.169C957.88 736.169 961.799 733.846 961.799 729.199V728.038L958.768 703.353H930.739ZM957.258 688.833L944.756 582.252L932.254 688.833H957.258Z" fill="#D89638" stroke="black" stroke-miterlimit="10"/>
<path d="M1091.3 746.914V736.169C1100.64 736.169 1105.31 733.459 1105.31 728.038V558.148H1098.11C1091.04 558.148 1087.51 561.735 1087.51 568.894H1073.49V543.628H1158.73V568.894H1144.71C1144.71 561.735 1141.17 558.148 1134.1 558.148H1126.91V728.038C1126.91 733.459 1131.58 736.169 1140.92 736.169V746.914H1091.3Z" fill="#D89638" stroke="black" stroke-miterlimit="10"/>
<path d="M1316.25 718.164C1316.25 727.651 1312.84 735.298 1306.02 741.106C1299.21 746.915 1290.24 749.819 1279.13 749.819C1268.01 749.819 1259.05 746.915 1252.23 741.106C1245.41 735.492 1242 728.038 1242 718.745V571.798C1242 562.505 1245.41 554.954 1252.23 549.146C1259.04 543.531 1268.01 540.724 1279.13 540.724C1297.81 540.724 1309.56 547.694 1314.36 561.634H1316.25V581.672H1294.66V569.765C1294.66 560.085 1289.48 555.245 1279.13 555.245C1268.77 555.245 1263.6 559.891 1263.6 569.184V721.359C1263.6 730.652 1268.77 735.298 1279.13 735.298C1289.74 735.298 1295.04 730.265 1295.04 720.197L1294.67 709.162H1316.26V718.164H1316.25Z" fill="#D89638" stroke="black" stroke-miterlimit="10"/>
<path d="M1461.28 746.914V736.169C1470.62 736.169 1475.3 733.459 1475.3 728.038V641.786H1440.82V728.038C1440.82 733.459 1445.49 736.169 1454.84 736.169V746.914H1405.21V736.169C1414.55 736.169 1419.23 733.459 1419.23 728.038V562.505C1419.23 557.088 1414.55 554.373 1405.21 554.373V543.628H1454.84V554.373C1445.49 554.373 1440.82 557.088 1440.82 562.505V627.266H1475.3V562.505C1475.3 557.088 1470.62 554.373 1461.28 554.373V543.628H1510.91V554.373C1501.56 554.373 1496.89 557.088 1496.89 562.505V728.038C1496.89 733.459 1501.56 736.169 1510.91 736.169V746.914H1461.28V746.914Z" fill="#D89638" stroke="black" stroke-miterlimit="10"/>
<path d="M1621.45 626.395V562.505C1621.45 557.088 1616.78 554.373 1607.44 554.373V543.628H1682.07V569.765H1668.05C1668.05 562.606 1664.51 559.02 1657.44 559.02H1643.04V626.395H1647.59C1654.66 626.395 1658.2 622.813 1658.2 615.649H1672.21V652.531H1658.2C1658.2 645.373 1654.65 641.786 1647.59 641.786H1643.04V731.523H1659.33C1666.4 731.523 1669.94 727.941 1669.94 720.778H1683.96V746.914H1607.44V736.169C1616.78 736.169 1621.45 733.459 1621.45 728.038V641.786H1601.75V626.395H1621.45Z" fill="#D89638" stroke="black" stroke-miterlimit="10"/>
<path d="M1772.91 746.914V736.169C1782.26 736.169 1786.93 733.459 1786.93 728.038V562.505C1786.93 557.088 1782.26 554.373 1772.91 554.373V543.628H1824.44C1836.56 543.628 1846.28 546.435 1853.61 552.05C1860.93 557.669 1864.59 565.021 1864.59 574.121V716.421C1864.59 725.526 1860.93 732.878 1853.61 738.493C1846.28 744.112 1836.56 746.914 1824.44 746.914H1772.91ZM1824.44 732.394C1836.81 732.394 1843 727.07 1843 716.421V574.411C1843 563.569 1836.81 558.148 1824.44 558.148H1808.52V732.394H1824.44Z" fill="#D89638" stroke="black" stroke-miterlimit="10"/>
<path d="M1877.33 794.035C1874.49 794.035 1871.81 793.15 1869.46 791.37C1864.96 787.955 1862.76 781.718 1864.34 776.864C1865.62 772.932 1869.01 770.604 1873.62 770.475L1873.79 776.463C1870.79 776.546 1870.26 778.173 1870.09 778.703C1869.38 780.86 1870.35 784.493 1873.13 786.609C1875.93 788.734 1879.54 788.489 1883.57 785.903C1884.37 785.216 1888.62 779.464 1886.24 771.655C1884.96 767.483 1882.4 764.708 1878.64 763.417C1875.63 762.389 1872.92 762.671 1872.89 762.671L1872.54 762.689H709.963L709.782 762.666C709.772 762.666 707.053 762.385 704.051 763.413C700.287 764.703 697.726 767.478 696.453 771.65C694.069 779.454 698.317 785.207 699.116 785.894C703.15 788.48 706.756 788.724 709.563 786.599C712.347 784.488 713.309 780.851 712.607 778.694C712.435 778.159 711.906 776.536 708.903 776.453L709.071 770.466C713.69 770.595 717.074 772.922 718.356 776.855C719.936 781.708 717.738 787.945 713.235 791.361C708.346 795.072 701.983 794.897 695.774 790.886C692.944 789.061 687.46 780.432 690.676 769.912C694.264 758.167 704.976 756.125 710.321 756.692H1872.38C1877.72 756.129 1888.43 758.167 1892.02 769.912C1895.23 780.432 1889.75 789.061 1886.92 790.886C1883.69 792.984 1880.42 794.03 1877.33 794.035ZM1883.63 785.876C1883.62 785.876 1883.62 785.88 1883.62 785.88C1883.62 785.88 1883.62 785.876 1883.63 785.876Z" fill="#D89638"/>
<path d="M328.325 459.928C328.325 464.958 329.261 469.192 331.157 472.629C333.038 476.085 335.493 477.804 338.516 477.804V724.343C335.488 724.343 333.038 725.917 331.157 729.047C329.266 732.196 328.325 736.267 328.325 741.278V743.16C318.134 746.309 309.358 753.98 301.999 766.216C294.64 778.447 290.015 793.035 288.129 809.971H286.996C283.969 809.971 281.519 811.545 279.637 814.675C277.746 817.824 276.805 822.826 276.805 827.838C276.805 827.838 161.606 884.075 86.2342 932.05C84.6645 924.132 85.6795 923.703 83.9794 920.881C82.2794 918.058 80.2999 916.028 78.0363 914.765L71.8743 741.274V574.718C70.7425 540.842 67.1514 514.023 61.1197 494.264C55.0879 474.502 49.4241 459.918 44.1376 450.51C42.2558 446.746 41.2169 443.453 41.0213 440.631C40.835 437.808 41.8692 436.397 44.1376 436.397C47.1604 436.397 51.1239 436.723 56.0239 437.338C60.9331 437.971 66.2152 438.912 71.8743 440.16V144.696L63.383 76.9448C65.6467 75.6965 67.6308 73.6518 69.3262 70.8292C71.0263 68.0066 71.8743 64.4062 71.8743 60.0093H266.619C266.619 65.0396 267.555 69.1105 269.451 72.2405C271.332 75.3891 273.782 76.9448 276.81 76.9448H277.942C279.828 93.2655 284.454 107.528 291.813 119.759C299.172 131.99 307.947 139.992 318.138 143.755C317.756 143.755 317.575 144.082 317.575 144.696C317.575 149.727 318.609 153.798 320.686 156.928C322.754 160.076 325.302 161.632 328.329 161.632V358.3C325.306 358.3 322.759 359.875 320.686 363.005C318.609 366.153 317.575 370.224 317.575 375.236C317.575 375.869 317.761 376.498 318.138 377.118C303.038 382.148 291.533 395.627 283.606 417.579C288.133 430.137 294.268 440.323 302.004 448.162C309.731 456.015 318.506 459.928 328.325 459.928ZM261.523 486.672H256.428H253.596C237.745 486.672 223.875 493.1 211.988 505.932C200.097 518.783 192.831 534.913 190.195 554.321C197.358 555.588 203.301 560.6 208.029 569.361C212.743 578.122 215.104 588.77 215.104 601.295C215.104 613.824 212.645 624.318 207.745 632.772C202.836 641.226 196.795 646.079 189.631 647.327V648.268H188.499H186.799C184.908 648.268 183.12 647.961 181.419 647.327C179.719 646.708 177.926 645.767 176.04 644.505C171.513 642.008 168.112 637.625 165.849 631.36C161.321 623.847 159.053 613.819 159.053 601.295C159.053 591.281 160.469 578.136 163.301 561.848C166.133 545.56 170.376 527.707 176.04 508.284C181.699 488.875 188.681 469.145 196.986 449.108C205.281 429.065 214.723 410.276 225.291 392.721L250.764 350.452L251.332 351.393V180.398L230.386 145.642H159.058L148.867 162.549V441.576C154.526 439.708 159.808 438.46 164.717 437.827C169.617 437.207 173.58 436.886 176.608 436.886C178.872 436.886 179.906 438.297 179.72 441.12C179.524 443.942 178.49 447.221 176.608 450.971C173.58 455.987 170.469 462.555 167.265 470.701C164.056 478.847 161.126 488.712 158.49 500.296C155.844 511.88 153.58 525.35 151.694 540.702C149.803 556.054 148.862 573.432 148.862 592.836V599.408V724.366L159.053 741.274H241.141L261.519 707.459V486.672H261.523Z" fill="white"/>
<path d="M682.144 379.558C684.408 379.558 685.442 380.881 685.26 383.513C685.065 386.158 684.03 388.79 682.144 391.422C679.498 395.646 676.573 401.184 673.369 408.031C670.16 414.892 667.141 423.197 664.31 432.945C661.478 442.708 659.116 454.04 657.235 466.956C655.344 479.881 654.403 494.516 654.403 510.855V618.426C651.38 618.426 648.921 619.749 647.025 622.38C645.134 625.026 644.183 628.449 644.183 632.665V634.248C634.346 636.894 625.748 643.345 618.37 653.629C610.992 663.913 607.406 670.583 605.52 684.822H604.378C601.356 684.822 598.896 686.145 597.001 688.776C595.11 691.422 594.169 694.845 594.169 699.061C594.169 699.061 493.957 734.106 461.507 747.613C460.836 747.893 459.22 748.433 459.22 748.433C459.22 748.433 458.274 740.328 456.379 737.683C454.488 735.051 452.038 733.728 449.01 733.728H447.869C453.654 714.543 441.348 663.913 433.975 653.629C426.597 643.345 417.99 636.894 408.162 634.248V632.665C408.162 628.449 407.216 625.026 405.32 622.38C403.429 619.749 400.97 618.426 397.943 618.426V508.485C397.943 492.667 397.006 478.428 395.111 465.773C393.229 453.118 390.863 442.042 388.036 432.554C385.204 423.062 382.19 414.892 378.976 408.036C375.772 401.189 372.847 395.651 370.201 391.426C368.32 388.795 367.281 386.163 367.09 383.517C366.903 380.886 367.938 379.563 370.201 379.563C373.229 379.563 377.188 379.833 382.088 380.355C386.997 380.886 392.279 381.938 397.938 383.517V145.432C400.961 145.432 403.42 144.123 405.316 141.478C407.207 138.846 408.157 135.423 408.157 131.194V129.61C417.985 126.978 426.593 120.513 433.971 110.229C441.348 99.9448 445.973 87.9604 447.864 74.2387H449.005C452.028 74.2387 454.478 72.9299 456.374 70.2843C458.265 67.6527 459.215 64.2292 459.215 60H593.121C593.121 64.2246 594.057 67.648 595.953 70.2843C597.844 72.9299 600.303 74.2387 603.33 74.2387H604.472C606.353 87.9558 610.993 99.9448 618.366 110.229C625.744 120.513 634.342 126.974 644.179 129.61V131.194C644.179 135.423 645.124 138.842 647.02 141.478C648.911 144.123 651.371 145.432 654.398 145.432V383.513C660.43 381.929 665.809 380.881 670.532 380.35C675.251 379.828 679.116 379.558 682.144 379.558ZM577.415 159.671L556.586 131.198H495.783L474.954 159.671V604.197L495.783 632.669H556.586L577.415 604.197V159.671Z" fill="white"/>
<path d="M956.858 60.7407H678.898C676.635 62.5153 675.121 63.3956 674.371 63.3956V123.15C677.007 123.15 679.751 124.258 682.578 126.471C685.41 128.693 686.826 132.228 686.826 137.095C687.198 137.989 688.33 139.75 690.221 142.405C692.107 145.06 694.185 148.278 696.449 152.032C698.712 155.796 701.26 159.666 704.092 163.654C706.924 167.636 709.658 171.185 712.299 174.278C719.844 183.137 724.558 192.983 726.454 203.822C728.335 214.674 727.204 223.855 723.058 231.377C721.926 230.05 720.981 229.169 720.226 228.722C716.449 226.067 712.387 224.968 708.056 225.401C703.715 225.848 700.031 228.056 697.017 232.038C691.358 237.795 689.844 245.099 692.489 253.948C693.244 255.276 693.905 256.72 694.469 258.266C695.037 259.822 695.885 261.256 697.017 262.584C697.39 263.031 697.669 263.245 697.864 263.245C698.051 263.245 698.335 263.474 698.712 263.911C704.371 270.115 710.035 271.876 715.694 269.221C721.354 266.566 726.449 261.149 730.981 252.956C735.509 244.773 739.472 234.698 742.868 222.746C746.263 210.795 748.713 198.628 750.227 186.23C750.599 184.022 752.109 182.475 754.754 181.581H755.886V123.15H770.041L779.1 134.436V330.964C773.809 329.637 768.718 328.752 763.813 328.309C758.904 327.871 754.941 327.643 751.927 327.643C749.663 327.643 748.62 328.752 748.816 330.964C749.002 333.186 750.036 335.394 751.927 337.602C754.563 341.151 757.395 345.571 760.418 350.881C763.431 356.191 766.264 362.497 768.909 369.801C771.545 377.104 773.809 385.516 775.7 395.031C777.582 404.557 778.718 415.283 779.096 427.23V533.492C781.9 533.627 784.708 533.781 787.512 533.944C810.144 535.295 833.274 537.707 856.088 536.59V438.521C856.088 424.808 857.024 412.521 858.92 401.673C860.802 390.835 863.168 381.207 865.995 372.791C868.827 364.388 871.84 357.304 875.054 351.547C878.259 345.799 881.184 341.151 883.829 337.606C885.711 335.394 886.75 333.186 886.946 330.969C887.132 328.757 886.098 327.648 883.829 327.648C880.802 327.648 876.843 327.876 871.943 328.314C867.034 328.761 861.752 329.641 856.093 330.969V133.774L866.284 122.488H879.302V180.249C880.052 180.249 880.434 180.477 880.434 180.915C882.316 180.915 884.016 182.243 885.53 184.897C887.034 197.296 889.493 209.462 892.889 221.414C896.284 233.366 900.248 243.441 904.776 251.624C909.303 259.822 914.301 265.234 919.778 267.889C925.246 270.544 931.003 268.783 937.044 262.579L938.176 261.252C940.812 258.159 942.326 255.276 942.703 252.621C945.34 244.652 943.835 237.353 938.176 230.711C935.149 227.171 931.469 225.066 927.137 224.404C922.792 223.743 918.735 224.963 914.967 228.056C914.585 228.503 914.208 228.834 913.835 229.053C913.453 229.281 913.075 229.612 912.703 230.05C908.543 222.527 907.323 213.449 909.023 202.83C910.724 192.205 915.339 182.475 922.894 173.616C925.53 170.524 928.274 166.872 931.101 162.661C933.933 158.46 936.569 154.478 939.029 150.71C941.479 146.956 943.556 143.737 945.256 141.082C946.956 138.427 948.176 136.881 948.935 136.434C948.935 131.124 950.351 127.472 953.183 125.479C956.015 123.485 958.563 122.493 960.827 122.493V62.0682C958.926 62.0682 957.613 61.6304 956.858 60.7407Z" fill="white"/>
<path d="M1268.4 60.7407H990.441C988.178 62.3197 986.664 63.1022 985.914 63.1022V116.233C988.55 116.233 991.293 117.22 994.121 119.186C996.953 121.161 998.369 124.305 998.369 128.632C998.741 129.424 999.873 130.993 1001.76 133.355C1003.65 135.716 1005.73 138.576 1007.99 141.916C1010.26 145.265 1012.8 148.707 1015.63 152.247C1018.47 155.787 1021.2 158.945 1023.84 161.693C1031.39 169.569 1036.1 178.325 1038 187.962C1039.88 197.608 1038.75 205.773 1034.6 212.462C1033.47 211.284 1032.52 210.496 1031.77 210.1C1027.99 207.739 1023.93 206.761 1019.6 207.147C1015.26 207.543 1011.57 209.509 1008.56 213.049C1002.9 218.168 1001.39 224.661 1004.03 232.528C1004.79 233.711 1005.45 234.991 1006.01 236.366C1006.58 237.749 1007.43 239.02 1008.56 240.203C1008.93 240.599 1009.21 240.795 1009.41 240.795C1009.59 240.795 1009.88 241 1010.26 241.387C1015.91 246.901 1021.58 248.471 1027.24 246.11C1032.9 243.748 1037.99 238.932 1042.52 231.647C1047.05 224.372 1051.02 215.415 1054.41 204.786C1057.81 194.162 1060.26 183.342 1061.77 172.317C1062.14 170.351 1063.65 168.977 1066.3 168.185H1067.43V116.228H1081.58L1090.64 126.266V301.001C1085.35 299.823 1080.26 299.035 1075.36 298.639C1070.45 298.253 1066.48 298.048 1063.47 298.048C1061.21 298.048 1060.16 299.035 1060.36 301.001C1060.54 302.976 1061.58 304.941 1063.47 306.902C1066.11 310.056 1068.94 313.987 1071.96 318.71C1074.97 323.433 1077.81 329.041 1080.45 335.534C1083.09 342.026 1085.35 349.507 1087.24 357.965C1089.12 366.433 1090.26 375.972 1090.64 386.596V534.219C1116.33 534.899 1142.01 537.451 1167.71 538.01L1167.63 396.629C1167.63 384.435 1168.56 373.513 1170.46 363.867C1172.34 354.23 1174.71 345.669 1177.53 338.188C1180.37 330.717 1183.38 324.415 1186.59 319.297C1189.8 314.187 1192.72 310.056 1195.37 306.898C1197.25 304.932 1198.29 302.967 1198.48 300.996C1198.67 299.031 1197.64 298.043 1195.37 298.043C1192.34 298.043 1188.38 298.248 1183.48 298.635C1178.57 299.031 1173.29 299.818 1167.63 300.996V125.674L1177.82 115.637H1190.84V166.993C1191.59 166.993 1191.97 167.198 1191.97 167.585C1193.85 167.585 1195.55 168.768 1197.07 171.125C1198.57 182.145 1201.03 192.965 1204.43 203.594C1207.82 214.218 1211.79 223.175 1216.31 230.455C1220.84 237.744 1225.84 242.556 1231.32 244.917C1236.78 247.279 1242.54 245.709 1248.58 240.194L1249.71 239.016C1252.35 236.268 1253.86 233.701 1254.24 231.34C1256.88 224.255 1255.37 217.762 1249.71 211.861C1246.69 208.717 1243.01 206.845 1238.68 206.253C1234.33 205.662 1230.27 206.752 1226.51 209.5C1226.12 209.896 1225.75 210.194 1225.37 210.385C1224.99 210.59 1224.61 210.883 1224.24 211.27C1220.08 204.581 1218.86 196.514 1220.56 187.068C1222.26 177.622 1226.88 168.973 1234.43 161.092C1237.07 158.344 1239.81 155.097 1242.64 151.352C1245.47 147.617 1248.11 144.077 1250.57 140.728C1253.02 137.389 1255.09 134.529 1256.79 132.167C1258.49 129.806 1259.71 128.432 1260.47 128.036C1260.47 123.313 1261.89 120.066 1264.72 118.296C1267.55 116.526 1270.1 115.642 1272.37 115.642V61.9191C1270.47 61.9191 1269.15 61.5325 1268.4 60.7407Z" fill="white"/>
<path d="M1303.33 374.826V462.708L1299.17 534.149C1305.78 534.275 1312.38 534.531 1318.98 534.913C1351.09 536.762 1383.23 532.426 1415.04 537.079C1416.51 536.897 1425.22 538.206 1426.69 538.01C1465.15 532.938 1494.88 537.405 1533.81 537.079C1532.91 509.342 1533.19 475.131 1532.89 469.937C1532.32 460.3 1531.76 451.861 1531.19 444.632C1530.63 437.403 1529.58 431.003 1528.08 425.442C1526.57 419.881 1523.36 414.692 1518.46 409.866C1509.02 400.23 1503.07 389.754 1500.62 378.441C1498.16 367.132 1499.78 357.215 1505.43 348.682C1509.96 353.13 1515.43 355.268 1521.85 355.077C1528.27 354.896 1533.93 352.576 1538.84 348.123C1543.36 343.675 1545.63 338.207 1545.63 331.714C1545.63 325.231 1543.36 319.753 1538.84 315.305C1538.08 314.192 1537.32 313.637 1536.57 313.637C1529.02 306.963 1521.66 305.016 1514.49 307.797C1507.32 310.577 1500.81 316.418 1494.96 325.319C1489.11 334.22 1484.01 345.161 1479.68 358.138C1475.34 371.123 1472.22 384.281 1470.34 397.631C1468.45 400.97 1465.81 402.638 1462.41 402.638V462.708H1391.08L1380.33 452.694V365.93C1381.46 345.543 1385.04 329.409 1391.08 317.541C1397.11 305.677 1402.78 296.776 1408.06 290.842C1409.95 288.989 1410.98 287.14 1411.18 285.281C1411.36 283.427 1410.33 282.5 1408.06 282.5C1405.04 282.5 1401.08 282.691 1396.18 283.055C1391.27 283.427 1385.79 284.168 1379.76 285.281L1380.33 110.63L1388.82 70.0236C1386.55 69.2831 1384.57 68.0767 1382.88 66.4092C1381.18 64.7418 1380.33 62.6132 1380.33 60.0142H1303.33C1303.33 62.6132 1302.49 64.7418 1300.79 66.4092C1299.09 68.0767 1297.11 69.2877 1294.84 70.0236L1303.33 110.63V285.281C1297.29 284.168 1291.92 283.427 1287.2 283.055C1282.49 282.691 1278.62 282.5 1275.59 282.5C1272.96 282.5 1271.83 283.432 1272.2 285.281C1272.58 287.14 1273.71 288.993 1275.59 290.842C1278.24 293.814 1281.16 297.708 1284.37 302.524C1287.58 307.35 1290.6 313.19 1293.43 320.047C1296.26 326.912 1298.61 334.881 1300.5 343.964C1302.38 353.051 1303.33 363.34 1303.33 374.826Z" fill="white"/>
<path d="M1552.72 283.805C1555.36 286.688 1558.29 290.461 1561.49 295.128C1564.7 299.804 1567.63 305.468 1570.27 312.114C1572.91 318.77 1575.17 326.591 1577.07 335.571C1578.95 344.56 1579.9 354.63 1579.9 365.772C1579.9 366.135 1579.99 366.405 1580.18 366.582C1580.37 366.768 1580.47 367.038 1580.47 367.392V450.98L1574.86 537.148C1586.42 537.102 1597.98 537.037 1609.54 536.944C1644.68 536.664 1679.82 536.203 1714.96 535.812C1747.67 535.448 1780.39 535.155 1813.1 535.113C1813.06 503.874 1812.97 463.281 1812.85 457.296C1812.66 448.051 1811.91 439.839 1810.59 432.643C1809.26 425.456 1807.28 419.163 1804.65 413.77C1802 408.376 1798.42 403.346 1793.89 398.669C1784.07 389.326 1778.04 379.172 1775.78 368.198C1773.51 357.234 1775.02 347.62 1780.31 339.348C1785.21 343.661 1790.87 345.734 1797.29 345.548C1803.7 345.371 1809.17 343.121 1813.71 338.808C1818.23 334.495 1820.5 329.194 1820.5 322.902C1820.5 316.614 1818.23 311.309 1813.71 306.991L1812.01 305.375C1804.45 298.905 1797.09 297.014 1789.93 299.711C1782.76 302.408 1776.15 308.071 1770.11 316.698C1764.07 325.324 1758.88 335.934 1754.55 348.515C1750.21 361.104 1747.09 373.862 1745.21 386.801C1743.7 390.038 1741.05 391.655 1737.28 391.655V441.809L1728.85 450.435H1667.58L1657.46 440.216V333.75C1658.59 325.864 1659.91 318.337 1661.43 311.169C1662.93 304.005 1664.91 297.731 1667.37 292.352C1669.82 286.977 1673.03 282.403 1676.99 278.635C1680.96 274.876 1686.14 272.449 1692.56 271.373C1693.31 280.703 1697.17 288.681 1704.17 295.314C1711.14 301.947 1719.73 305.258 1729.92 305.258C1740.11 305.258 1748.79 301.853 1755.96 295.048C1763.13 288.239 1766.72 279.99 1766.72 270.311V266.543C1765.96 254.335 1762.38 245.714 1755.96 240.674C1749.54 235.644 1741.33 233.217 1731.34 233.394C1721.33 233.58 1709.91 236.184 1697.09 241.214C1684.25 246.254 1670.85 252.724 1656.9 260.628L1657.47 118.799L1667.58 109.093H1728.87L1738.98 118.799V201.847C1743.88 201.847 1746.91 203.65 1748.04 207.241L1806.92 166.798C1806.16 165.363 1805.78 163.924 1805.78 162.484C1805.78 159.611 1806.72 157.277 1808.62 155.475C1810.5 153.681 1812.95 152.778 1815.97 152.778V109.097L1824.47 69.7302C1818.81 68.6496 1815.97 65.4171 1815.97 60.0234H1580.47C1580.47 62.5433 1579.62 64.6067 1577.92 66.2229C1576.22 67.8391 1574.24 69.0129 1571.98 69.7302L1580.47 109.097V278.416C1574.43 277.335 1569.06 276.622 1564.34 276.259C1559.62 275.905 1555.76 275.719 1552.73 275.719C1550.09 275.719 1548.96 276.622 1549.33 278.416C1549.7 280.218 1550.83 282.011 1552.72 283.805Z" fill="white"/>
<path d="M1868.05 539.302C1867.45 539.302 1866.89 539.269 1866.38 539.218H701.755C696.403 539.791 685.667 537.728 682.067 525.86C678.844 515.231 684.34 506.511 687.176 504.667C693.399 500.615 699.78 500.442 704.676 504.187C709.189 507.639 711.396 513.94 709.808 518.845C708.523 522.818 705.132 525.17 700.502 525.301L700.334 519.25C703.339 519.166 703.87 517.522 704.046 516.987C704.75 514.807 703.786 511.132 700.996 508.999C698.187 506.847 694.568 507.094 690.53 509.711C689.733 510.405 685.471 516.218 687.861 524.108C690.954 534.309 700.796 533.238 701.22 533.191L701.583 533.168H1866.73L1866.91 533.191C1866.93 533.191 1869.65 533.475 1872.66 532.436C1876.43 531.132 1878.99 528.328 1880.27 524.113C1882.66 516.227 1878.4 510.415 1877.6 509.721C1873.56 507.108 1869.94 506.861 1867.14 509.008C1864.35 511.141 1863.38 514.816 1864.09 516.996C1864.26 517.536 1864.79 519.176 1867.8 519.26L1867.63 525.31C1863 525.18 1859.61 522.827 1858.33 518.854C1856.74 513.95 1858.95 507.648 1863.46 504.197C1868.36 500.452 1874.74 500.624 1880.96 504.676C1883.8 506.521 1889.29 515.24 1886.07 525.869C1882.81 536.591 1873.72 539.302 1868.05 539.302ZM690.493 509.735C690.488 509.735 690.488 509.739 690.484 509.739C690.484 509.739 690.488 509.739 690.493 509.735Z" fill="#D89638"/>
</svg>
