<svg width="1836" height="873" viewBox="0 0 1836 873" fill="none" xmlns="http://www.w3.org/2000/svg">
<path d="M287.325 399.928C287.325 404.958 288.261 409.192 290.157 412.629C292.038 416.085 294.493 417.804 297.516 417.804V664.343C294.488 664.343 292.038 665.917 290.157 669.047C288.266 672.196 287.325 676.267 287.325 681.278V683.16C277.134 686.309 268.358 693.98 260.999 706.216C253.64 718.447 249.015 733.035 247.129 749.971H245.996C242.969 749.971 240.519 751.545 238.637 754.675C236.746 757.824 235.805 762.826 235.805 767.838C235.805 767.838 120.606 824.075 45.2342 872.05C43.6645 864.132 44.6795 863.703 42.9794 860.881C41.2794 858.058 39.2999 856.028 37.0363 854.765L30.8743 681.274V514.718C29.7425 480.842 26.1514 454.023 20.1197 434.264C14.0879 414.502 8.42409 399.918 3.13755 390.51C1.25583 386.746 0.216949 383.453 0.0213236 380.631C-0.164986 377.808 0.869233 376.397 3.13755 376.397C6.16043 376.397 10.1239 376.723 15.0239 377.338C19.9331 377.971 25.2152 378.912 30.8743 380.16V84.6963L22.383 16.9448C24.6467 15.6965 26.6308 13.6518 28.3262 10.8292C30.0263 8.00662 30.8743 4.40618 30.8743 0.00927734H225.619C225.619 5.03964 226.555 9.1105 228.451 12.2405C230.332 15.3891 232.782 16.9448 235.81 16.9448H236.942C238.828 33.2655 243.454 47.5275 250.813 59.7588C258.172 71.99 266.947 79.992 277.138 83.7555C276.756 83.7555 276.575 84.0815 276.575 84.6963C276.575 89.7267 277.609 93.7975 279.686 96.9276C281.754 100.076 284.302 101.632 287.329 101.632V298.3C284.306 298.3 281.759 299.875 279.686 303.005C277.609 306.153 276.575 310.224 276.575 315.236C276.575 315.869 276.761 316.498 277.138 317.118C262.038 322.148 250.533 335.627 242.606 357.579C247.133 370.137 253.267 380.323 261.004 388.162C268.731 396.015 277.506 399.928 287.325 399.928ZM220.524 426.672H215.428H212.596C196.746 426.672 182.875 433.1 170.988 445.932C159.097 458.783 151.831 474.913 149.195 494.321C156.358 495.588 162.301 500.6 167.029 509.361C171.743 518.122 174.104 528.77 174.104 541.295C174.104 553.824 171.645 564.318 166.745 572.772C161.836 581.226 155.795 586.079 148.631 587.327V588.268H147.499H145.799C143.908 588.268 142.12 587.961 140.419 587.327C138.719 586.708 136.926 585.767 135.04 584.505C130.513 582.008 127.112 577.625 124.849 571.36C120.321 563.847 118.053 553.819 118.053 541.295C118.053 531.281 119.469 518.136 122.301 501.848C125.133 485.56 129.376 467.707 135.04 448.284C140.699 428.875 147.681 409.145 155.986 389.108C164.281 369.065 173.723 350.276 184.291 332.721L209.764 290.452L210.332 291.393V120.398L189.386 85.6418H118.058L107.867 102.549V381.576C113.526 379.708 118.808 378.46 123.717 377.827C128.617 377.207 132.58 376.886 135.608 376.886C137.872 376.886 138.906 378.297 138.72 381.12C138.524 383.942 137.49 387.221 135.608 390.971C132.58 395.987 129.469 402.555 126.265 410.701C123.056 418.847 120.126 428.712 117.49 440.296C114.844 451.88 112.58 465.35 110.694 480.702C108.803 496.054 107.862 513.432 107.862 532.836V539.408V664.366L118.053 681.274H200.141L220.519 647.459V426.672H220.524Z" fill="white"/>
<path d="M641.144 319.558C643.408 319.558 644.442 320.881 644.26 323.513C644.065 326.158 643.03 328.79 641.144 331.422C638.498 335.646 635.573 341.184 632.369 348.031C629.16 354.892 626.141 363.197 623.31 372.945C620.478 382.708 618.116 394.04 616.235 406.956C614.344 419.881 613.403 434.516 613.403 450.855V558.426C610.38 558.426 607.921 559.749 606.025 562.38C604.134 565.026 603.183 568.449 603.183 572.665V574.248C593.346 576.894 584.748 583.345 577.37 593.629C569.992 603.913 566.406 610.583 564.52 624.822H563.378C560.356 624.822 557.896 626.145 556.001 628.776C554.11 631.422 553.169 634.845 553.169 639.061C553.169 639.061 452.957 674.106 420.507 687.613C419.836 687.892 418.22 688.433 418.22 688.433C418.22 688.433 417.274 680.328 415.379 677.683C413.488 675.051 411.038 673.728 408.01 673.728H406.869C412.654 654.543 400.348 603.913 392.975 593.629C385.597 583.345 376.99 576.894 367.162 574.248V572.665C367.162 568.449 366.216 565.026 364.32 562.38C362.429 559.749 359.97 558.426 356.943 558.426V448.485C356.943 432.667 356.006 418.428 354.111 405.773C352.229 393.118 349.863 382.042 347.036 372.554C344.204 363.062 341.19 354.892 337.976 348.036C334.772 341.189 331.847 335.651 329.201 331.426C327.32 328.795 326.281 326.163 326.09 323.517C325.903 320.886 326.938 319.563 329.201 319.563C332.229 319.563 336.188 319.833 341.088 320.355C345.997 320.886 351.279 321.938 356.938 323.517V85.4323C359.961 85.4323 362.42 84.1235 364.316 81.4779C366.207 78.8462 367.157 75.4228 367.157 71.1936V69.6099C376.985 66.9783 385.593 60.5134 392.971 50.2291C400.348 39.9448 404.973 27.9604 406.864 14.2387H408.005C411.028 14.2387 413.478 12.9299 415.374 10.2843C417.265 7.65267 418.215 4.22923 418.215 0H552.121C552.121 4.22457 553.057 7.64801 554.953 10.2843C556.844 12.9299 559.303 14.2387 562.33 14.2387H563.472C565.353 27.9558 569.993 39.9448 577.366 50.2291C584.744 60.5134 593.342 66.9737 603.179 69.6099V71.1936C603.179 75.4228 604.124 78.8416 606.02 81.4779C607.911 84.1235 610.371 85.4323 613.398 85.4323V323.513C619.43 321.929 624.809 320.881 629.532 320.35C634.251 319.828 638.116 319.558 641.144 319.558ZM536.415 99.671L515.586 71.1982H454.783L433.954 99.671V544.197L454.783 572.669H515.586L536.415 544.197V99.671Z" fill="white"/>
<path d="M915.858 0.740723H637.898C635.635 2.51532 634.121 3.39564 633.371 3.39564V63.1498C636.007 63.1498 638.751 64.2583 641.578 66.4708C644.41 68.6925 645.826 72.2277 645.826 77.0951C646.198 77.9894 647.33 79.75 649.221 82.4049C651.107 85.0598 653.185 88.2783 655.449 92.0324C657.712 95.7959 660.26 99.6665 663.092 103.654C665.924 107.636 668.658 111.185 671.299 114.278C678.844 123.137 683.558 132.983 685.454 143.822C687.335 154.674 686.204 163.855 682.058 171.377C680.926 170.05 679.981 169.169 679.226 168.722C675.449 166.067 671.387 164.968 667.056 165.401C662.715 165.848 659.031 168.056 656.017 172.038C650.358 177.795 648.844 185.099 651.489 193.948C652.244 195.276 652.905 196.72 653.469 198.266C654.037 199.822 654.885 201.256 656.017 202.584C656.39 203.031 656.669 203.245 656.864 203.245C657.051 203.245 657.335 203.474 657.712 203.911C663.371 210.115 669.035 211.876 674.694 209.221C680.354 206.566 685.449 201.149 689.981 192.956C694.509 184.773 698.472 174.698 701.868 162.746C705.263 150.795 707.713 138.628 709.227 126.23C709.599 124.022 711.109 122.475 713.754 121.581H714.886V63.1498H729.041L738.1 74.4355V270.964C732.809 269.637 727.718 268.752 722.813 268.309C717.904 267.872 713.941 267.643 710.927 267.643C708.663 267.643 707.62 268.752 707.816 270.964C708.002 273.186 709.036 275.394 710.927 277.602C713.563 281.151 716.395 285.571 719.418 290.881C722.431 296.191 725.264 302.497 727.909 309.8C730.545 317.104 732.809 325.516 734.7 335.031C736.582 344.557 737.718 355.283 738.096 367.23V473.492C740.9 473.627 743.708 473.781 746.512 473.944C769.144 475.295 792.274 477.707 815.088 476.59V378.521C815.088 364.808 816.024 352.521 817.92 341.673C819.802 330.835 822.168 321.207 824.995 312.791C827.827 304.388 830.84 297.304 834.054 291.547C837.259 285.799 840.184 281.151 842.829 277.606C844.711 275.394 845.75 273.186 845.946 270.969C846.132 268.756 845.098 267.648 842.829 267.648C839.802 267.648 835.843 267.876 830.943 268.314C826.034 268.761 820.752 269.641 815.093 270.969V73.7741L825.284 62.4884H838.302V120.249C839.052 120.249 839.434 120.477 839.434 120.915C841.316 120.915 843.016 122.243 844.53 124.897C846.034 137.296 848.493 149.462 851.889 161.414C855.284 173.366 859.248 183.441 863.776 191.624C868.303 199.822 873.301 205.234 878.778 207.889C884.246 210.544 890.003 208.783 896.044 202.579L897.176 201.252C899.812 198.159 901.326 195.276 901.703 192.621C904.34 184.652 902.835 177.353 897.176 170.711C894.149 167.171 890.469 165.066 886.137 164.404C881.792 163.743 877.735 164.963 873.967 168.056C873.585 168.503 873.208 168.834 872.835 169.053C872.453 169.281 872.075 169.612 871.703 170.05C867.543 162.527 866.323 153.449 868.023 142.83C869.724 132.205 874.339 122.475 881.894 113.616C884.53 110.524 887.274 106.872 890.101 102.661C892.933 98.4601 895.569 94.4778 898.029 90.7097C900.479 86.9555 902.556 83.737 904.256 81.0821C905.956 78.4272 907.176 76.8808 907.935 76.4337C907.935 71.1238 909.351 67.4722 912.183 65.4787C915.015 63.4851 917.563 62.4931 919.827 62.4931V2.06818C917.926 2.06818 916.613 1.63035 915.858 0.740723Z" fill="white"/>
<path d="M1227.4 0.740723H949.441C947.178 2.3197 945.664 3.1022 944.914 3.1022V56.2331C947.55 56.2331 950.293 57.2205 953.121 59.1861C955.953 61.1609 957.369 64.3049 957.369 68.632C957.741 69.4238 958.873 70.9934 960.764 73.3549C962.646 75.7164 964.728 78.5762 966.991 81.9158C969.255 85.2648 971.803 88.7068 974.635 92.2467C977.467 95.7866 980.201 98.9445 982.842 101.693C990.387 109.569 995.101 118.325 996.997 127.962C998.878 137.608 997.746 145.773 993.601 152.462C992.469 151.284 991.524 150.496 990.769 150.101C986.992 147.739 982.93 146.761 978.599 147.147C974.258 147.543 970.573 149.509 967.56 153.049C961.9 158.168 960.387 164.661 963.032 172.528C963.787 173.711 964.448 174.991 965.012 176.366C965.58 177.749 966.428 179.02 967.56 180.203C967.932 180.599 968.212 180.795 968.407 180.795C968.594 180.795 968.878 181 969.255 181.387C974.914 186.901 980.578 188.471 986.237 186.11C991.897 183.748 996.992 178.932 1001.52 171.647C1006.05 164.372 1010.02 155.415 1013.41 144.786C1016.81 134.162 1019.26 123.342 1020.77 112.317C1021.14 110.351 1022.65 108.977 1025.3 108.185H1026.43V56.2284H1040.58L1049.64 66.2658V241.001C1044.35 239.823 1039.26 239.035 1034.36 238.64C1029.45 238.253 1025.48 238.048 1022.47 238.048C1020.21 238.048 1019.16 239.035 1019.36 241.001C1019.54 242.976 1020.58 244.941 1022.47 246.902C1025.11 250.056 1027.94 253.987 1030.96 258.71C1033.97 263.433 1036.81 269.041 1039.45 275.533C1042.09 282.026 1044.35 289.507 1046.24 297.965C1048.12 306.433 1049.26 315.972 1049.64 326.596V474.219C1075.33 474.899 1101.01 477.451 1126.71 478.01L1126.63 336.629C1126.63 324.435 1127.56 313.513 1129.46 303.867C1131.34 294.23 1133.71 285.669 1136.53 278.188C1139.37 270.717 1142.38 264.415 1145.59 259.297C1148.8 254.187 1151.72 250.056 1154.37 246.898C1156.25 244.932 1157.29 242.967 1157.48 240.996C1157.67 239.031 1156.64 238.043 1154.37 238.043C1151.34 238.043 1147.38 238.248 1142.48 238.635C1137.57 239.031 1132.29 239.818 1126.63 240.996V65.6743L1136.82 55.6369H1149.84V106.993C1150.59 106.993 1150.97 107.198 1150.97 107.585C1152.85 107.585 1154.55 108.768 1156.07 111.125C1157.57 122.145 1160.03 132.965 1163.43 143.594C1166.82 154.218 1170.79 163.175 1175.31 170.455C1179.84 177.744 1184.84 182.556 1190.32 184.917C1195.78 187.279 1201.54 185.709 1207.58 180.194L1208.71 179.016C1211.35 176.268 1212.86 173.701 1213.24 171.34C1215.88 164.255 1214.37 157.762 1208.71 151.861C1205.69 148.717 1202.01 146.845 1197.68 146.253C1193.33 145.662 1189.27 146.752 1185.51 149.5C1185.12 149.896 1184.75 150.194 1184.37 150.385C1183.99 150.59 1183.61 150.883 1183.24 151.27C1179.08 144.581 1177.86 136.514 1179.56 127.068C1181.26 117.622 1185.88 108.973 1193.43 101.092C1196.07 98.3437 1198.81 95.0972 1201.64 91.3524C1204.47 87.6169 1207.11 84.077 1209.57 80.7281C1212.02 77.3885 1214.09 74.5287 1215.79 72.1672C1217.49 69.8057 1218.71 68.4317 1219.47 68.0358C1219.47 63.3128 1220.89 60.0664 1223.72 58.2964C1226.55 56.5265 1229.1 55.6415 1231.37 55.6415V1.91913C1229.47 1.91913 1228.15 1.53254 1227.4 0.740723Z" fill="white"/>
<path d="M1262.33 314.826V402.708L1258.17 474.149C1264.78 474.275 1271.38 474.531 1277.98 474.913C1310.09 476.762 1342.23 472.426 1374.04 477.079C1375.51 476.897 1384.22 478.206 1385.69 478.01C1424.15 472.938 1453.88 477.405 1492.81 477.079C1491.91 449.342 1492.19 415.131 1491.89 409.937C1491.32 400.3 1490.76 391.861 1490.19 384.632C1489.63 377.403 1488.58 371.003 1487.08 365.442C1485.57 359.881 1482.36 354.692 1477.46 349.866C1468.02 340.23 1462.07 329.754 1459.62 318.441C1457.16 307.132 1458.78 297.215 1464.43 288.682C1468.96 293.13 1474.43 295.268 1480.85 295.077C1487.27 294.896 1492.93 292.576 1497.84 288.123C1502.36 283.675 1504.63 278.207 1504.63 271.714C1504.63 265.231 1502.36 259.753 1497.84 255.305C1497.08 254.192 1496.32 253.637 1495.57 253.637C1488.02 246.963 1480.66 245.016 1473.49 247.797C1466.32 250.577 1459.81 256.418 1453.96 265.319C1448.11 274.22 1443.01 285.161 1438.68 298.138C1434.34 311.123 1431.22 324.281 1429.34 337.631C1427.45 340.97 1424.81 342.638 1421.41 342.638V402.708H1350.08L1339.33 392.694V305.93C1340.46 285.543 1344.04 269.409 1350.08 257.541C1356.11 245.677 1361.78 236.776 1367.06 230.842C1368.95 228.989 1369.98 227.14 1370.18 225.281C1370.36 223.427 1369.33 222.5 1367.06 222.5C1364.04 222.5 1360.08 222.691 1355.18 223.055C1350.27 223.427 1344.79 224.168 1338.76 225.281L1339.33 50.6298L1347.82 10.0236C1345.55 9.28306 1343.57 8.07671 1341.88 6.40924C1340.18 4.74177 1339.33 2.61318 1339.33 0.0141602H1262.33C1262.33 2.61318 1261.49 4.74177 1259.79 6.40924C1258.09 8.07671 1256.11 9.28772 1253.84 10.0236L1262.33 50.6298V225.281C1256.29 224.168 1250.92 223.427 1246.2 223.055C1241.49 222.691 1237.62 222.5 1234.59 222.5C1231.96 222.5 1230.83 223.432 1231.2 225.281C1231.58 227.14 1232.71 228.993 1234.59 230.842C1237.24 233.814 1240.16 237.708 1243.37 242.524C1246.58 247.35 1249.6 253.19 1252.43 260.047C1255.26 266.912 1257.61 274.881 1259.5 283.964C1261.38 293.051 1262.33 303.34 1262.33 314.826Z" fill="white"/>
<path d="M1511.72 223.805C1514.36 226.688 1517.29 230.461 1520.49 235.128C1523.7 239.804 1526.63 245.468 1529.27 252.114C1531.91 258.77 1534.17 266.591 1536.07 275.571C1537.95 284.56 1538.9 294.63 1538.9 305.772C1538.9 306.135 1538.99 306.405 1539.18 306.582C1539.37 306.768 1539.47 307.038 1539.47 307.392V390.98L1533.86 477.148C1545.42 477.102 1556.98 477.037 1568.54 476.944C1603.68 476.664 1638.82 476.203 1673.96 475.812C1706.67 475.448 1739.39 475.155 1772.1 475.113C1772.06 443.874 1771.97 403.281 1771.85 397.296C1771.66 388.051 1770.91 379.839 1769.59 372.643C1768.26 365.456 1766.28 359.163 1763.65 353.77C1761 348.376 1757.42 343.346 1752.89 338.669C1743.07 329.326 1737.04 319.172 1734.78 308.198C1732.51 297.234 1734.02 287.62 1739.31 279.348C1744.21 283.661 1749.87 285.734 1756.29 285.548C1762.7 285.371 1768.17 283.121 1772.71 278.808C1777.23 274.495 1779.5 269.194 1779.5 262.902C1779.5 256.614 1777.23 251.309 1772.71 246.991L1771.01 245.375C1763.45 238.905 1756.09 237.014 1748.93 239.711C1741.76 242.408 1735.15 248.071 1729.11 256.698C1723.07 265.324 1717.88 275.934 1713.55 288.515C1709.21 301.104 1706.09 313.862 1704.21 326.801C1702.7 330.038 1700.05 331.655 1696.28 331.655V381.809L1687.85 390.435H1626.58L1616.46 380.216V273.75C1617.59 265.864 1618.91 258.337 1620.43 251.169C1621.93 244.005 1623.91 237.731 1626.37 232.352C1628.82 226.977 1632.03 222.403 1635.99 218.635C1639.96 214.876 1645.14 212.449 1651.56 211.373C1652.31 220.703 1656.17 228.681 1663.17 235.314C1670.14 241.947 1678.73 245.258 1688.92 245.258C1699.11 245.258 1707.79 241.853 1714.96 235.048C1722.13 228.239 1725.72 219.99 1725.72 210.311V206.543C1724.96 194.335 1721.38 185.714 1714.96 180.674C1708.54 175.644 1700.33 173.217 1690.34 173.394C1680.33 173.58 1668.91 176.184 1656.09 181.214C1643.25 186.254 1629.85 192.724 1615.9 200.628L1616.47 58.7995L1626.58 49.0927H1687.87L1697.98 58.7995V141.847C1702.88 141.847 1705.91 143.65 1707.04 147.241L1765.92 106.797C1765.16 105.363 1764.78 103.924 1764.78 102.484C1764.78 99.6106 1765.72 97.2771 1767.62 95.4745C1769.5 93.6813 1771.95 92.7777 1774.97 92.7777V49.0974L1783.47 9.73017C1777.81 8.64957 1774.97 5.4171 1774.97 0.0234375H1539.47C1539.47 2.54328 1538.62 4.60666 1536.92 6.22289C1535.22 7.83913 1533.24 9.01288 1530.98 9.73017L1539.47 49.0974V218.416C1533.43 217.335 1528.06 216.622 1523.34 216.259C1518.62 215.905 1514.76 215.719 1511.73 215.719C1509.09 215.719 1507.96 216.622 1508.33 218.416C1508.7 220.218 1509.83 222.011 1511.72 223.805Z" fill="white"/>
<path d="M741.403 600.928V662.256C741.403 671.455 737.984 678.884 731.151 684.557C724.318 690.235 715.329 693.067 704.192 693.067H649.52V682.21C658.882 682.21 663.567 679.471 663.567 673.994V506.734C663.567 501.261 658.882 498.518 649.52 498.518V487.661H700.019C711.658 487.661 721.025 490.497 728.114 496.17C735.199 501.848 738.748 509.277 738.748 518.472V558.379C738.748 566.404 734.695 572.66 726.596 577.159C736.465 582.245 741.403 590.168 741.403 600.928ZM700.019 572.171C711.412 572.171 717.103 569.045 717.103 562.781V518.765C717.103 507.81 711.407 502.333 700.019 502.333H685.212V572.171H700.019ZM704.192 678.395C714.569 678.395 719.758 673.015 719.758 662.256V601.221C719.758 591.64 714.569 586.843 704.192 586.843H685.207V678.395H704.192Z" fill="white"/>
<path d="M869.658 649.051L866.621 673.994V675.167C866.621 679.862 870.543 682.21 878.392 682.21V693.067H830.17V682.21C838.521 682.21 843.458 679.965 844.977 675.461L866.999 506.734V505.56C866.999 500.865 863.203 498.518 855.606 498.518V487.661H897.372L922.43 675.167C923.693 679.862 928.63 682.21 937.237 682.21V693.067H889.016V682.21C896.859 682.21 900.786 679.862 900.786 675.167V673.994L897.749 649.051H869.658ZM896.235 634.379L883.706 526.688L871.177 634.379H896.235Z" fill="white"/>
<path d="M1030.57 693.067V682.21C1039.93 682.21 1044.62 679.471 1044.62 673.994V502.333H1037.4C1030.31 502.333 1026.77 505.956 1026.77 513.19H1012.72V487.661H1098.15V513.19H1084.1C1084.1 505.956 1080.56 502.333 1073.47 502.333H1066.26V673.994C1066.26 679.471 1070.94 682.21 1080.3 682.21V693.067H1030.57Z" fill="white"/>
<path d="M1256.02 664.017C1256.02 673.603 1252.6 681.33 1245.77 687.199C1238.94 693.067 1229.95 696.002 1218.81 696.002C1207.67 696.002 1198.69 693.067 1191.85 687.199C1185.02 681.525 1181.6 673.994 1181.6 664.604V516.124C1181.6 506.734 1185.02 499.105 1191.85 493.236C1198.69 487.563 1207.67 484.727 1218.81 484.727C1237.54 484.727 1249.31 491.769 1254.12 505.854H1256.02V526.101H1234.38V514.07C1234.38 504.289 1229.19 499.398 1218.82 499.398C1208.43 499.398 1203.25 504.093 1203.25 513.483V667.245C1203.25 676.635 1208.43 681.33 1218.82 681.33C1229.45 681.33 1234.77 676.244 1234.77 666.071L1234.39 654.92H1256.03V664.017H1256.02Z" fill="white"/>
<path d="M1401.37 693.067V682.21C1410.73 682.21 1415.42 679.471 1415.42 673.994V586.843H1380.86V673.994C1380.86 679.471 1385.55 682.21 1394.91 682.21V693.067H1345.17V682.21C1354.53 682.21 1359.22 679.471 1359.22 673.994V506.734C1359.22 501.261 1354.53 498.518 1345.17 498.518V487.661H1394.91V498.518C1385.55 498.518 1380.86 501.261 1380.86 506.734V572.171H1415.42V506.734C1415.42 501.261 1410.73 498.518 1401.37 498.518V487.661H1451.11V498.518C1441.74 498.518 1437.06 501.261 1437.06 506.734V673.994C1437.06 679.471 1441.74 682.21 1451.11 682.21V693.067H1401.37V693.067Z" fill="white"/>
<path d="M1561.9 571.29V506.734C1561.9 501.261 1557.21 498.518 1547.85 498.518V487.661H1622.65V514.07H1608.6C1608.6 506.837 1605.05 503.213 1597.97 503.213H1583.54V571.29H1588.09C1595.18 571.29 1598.72 567.671 1598.72 560.433H1612.77V597.7H1598.72C1598.72 590.466 1595.17 586.843 1588.09 586.843H1583.54V677.515H1599.86C1606.95 677.515 1610.5 673.896 1610.5 666.658H1624.54V693.067H1547.85V682.21C1557.21 682.21 1561.9 679.471 1561.9 673.994V586.843H1542.15V571.29H1561.9Z" fill="white"/>
<path d="M1713.69 693.067V682.21C1723.05 682.21 1727.74 679.471 1727.74 673.994V506.734C1727.74 501.261 1723.05 498.518 1713.69 498.518V487.661H1765.33C1777.48 487.661 1787.22 490.497 1794.56 496.17C1801.9 501.848 1805.57 509.277 1805.57 518.472V662.256C1805.57 671.455 1801.9 678.884 1794.56 684.557C1787.22 690.235 1777.48 693.067 1765.33 693.067H1713.69ZM1765.33 678.395C1777.73 678.395 1783.93 673.015 1783.93 662.256V518.765C1783.93 507.81 1777.73 502.333 1765.33 502.333H1749.38V678.395H1765.33Z" fill="white"/>
<path d="M1815.05 480.302C1814.45 480.302 1813.89 480.269 1813.38 480.218H648.755C643.403 480.791 632.667 478.728 629.067 466.86C625.844 456.231 631.34 447.511 634.176 445.667C640.399 441.615 646.78 441.442 651.676 445.187C656.189 448.639 658.396 454.94 656.808 459.845C655.523 463.818 652.132 466.17 647.502 466.301L647.334 460.25C650.339 460.166 650.87 458.522 651.046 457.987C651.75 455.807 650.786 452.132 647.996 449.999C645.187 447.847 641.568 448.094 637.53 450.711C636.733 451.405 632.471 457.218 634.861 465.108C637.954 475.309 647.796 474.238 648.22 474.191L648.583 474.168H1813.73L1813.91 474.191C1813.93 474.191 1816.65 474.475 1819.66 473.436C1823.43 472.132 1825.99 469.328 1827.27 465.113C1829.66 457.227 1825.4 451.415 1824.6 450.721C1820.56 448.108 1816.94 447.861 1814.14 450.008C1811.35 452.141 1810.38 455.816 1811.09 457.996C1811.26 458.536 1811.79 460.176 1814.8 460.26L1814.63 466.31C1810 466.18 1806.61 463.827 1805.33 459.854C1803.74 454.95 1805.95 448.648 1810.46 445.197C1815.36 441.452 1821.74 441.624 1827.96 445.676C1830.8 447.521 1836.29 456.24 1833.07 466.869C1829.81 477.591 1820.72 480.302 1815.05 480.302ZM637.493 450.735C637.488 450.735 637.488 450.739 637.484 450.739C637.484 450.739 637.488 450.739 637.493 450.735Z" fill="white"/>
<path d="M1818.33 740.679C1815.49 740.679 1812.8 739.785 1810.45 737.987C1805.94 734.535 1803.73 728.233 1805.32 723.329C1806.61 719.356 1810 717.004 1814.62 716.873L1814.79 722.924C1811.78 723.008 1811.25 724.652 1811.08 725.187C1810.37 727.367 1811.34 731.037 1814.13 733.175C1816.94 735.323 1820.56 735.076 1824.59 732.463C1825.39 731.769 1829.65 725.956 1827.26 718.066C1825.99 713.85 1823.42 711.046 1819.65 709.742C1816.64 708.704 1813.92 708.988 1813.89 708.988L1813.54 709.006H648.393L648.211 708.983C648.201 708.983 645.477 708.699 642.468 709.738C638.695 711.042 636.129 713.846 634.852 718.061C632.463 725.947 636.72 731.759 637.522 732.453C641.564 735.066 645.179 735.313 647.992 733.166C650.782 731.033 651.746 727.358 651.043 725.178C650.87 724.638 650.339 722.998 647.331 722.914L647.498 716.864C652.128 716.994 655.519 719.347 656.804 723.32C658.388 728.224 656.185 734.526 651.672 737.977C646.772 741.727 640.395 741.55 634.172 737.498C631.336 735.653 625.84 726.934 629.063 716.305C632.659 704.437 643.395 702.374 648.751 702.947H1813.37C1818.72 702.378 1829.46 704.437 1833.06 716.305C1836.28 726.934 1830.78 735.653 1827.95 737.498C1824.71 739.617 1821.43 740.674 1818.33 740.679ZM1824.65 732.435C1824.64 732.435 1824.64 732.439 1824.64 732.439C1824.64 732.439 1824.64 732.435 1824.65 732.435Z" fill="white"/>
<path d="M1816.97 482.804C1816.37 482.804 1815.81 482.771 1815.3 482.72H650.675C645.323 483.293 634.587 481.23 630.987 469.362C627.764 458.733 633.26 450.013 636.096 448.169C642.319 444.117 648.7 443.944 653.595 447.689C658.109 451.141 660.316 457.442 658.728 462.347C657.443 466.32 654.052 468.672 649.422 468.803L649.254 462.752C652.259 462.668 652.789 461.024 652.966 460.489C653.67 458.309 652.706 454.634 649.916 452.501C647.107 450.349 643.488 450.596 639.45 453.213C638.653 453.907 634.391 459.72 636.781 467.61C639.874 477.811 649.716 476.739 650.139 476.693L650.503 476.67H1815.65L1815.83 476.693C1815.85 476.693 1818.57 476.977 1821.58 475.938C1825.35 474.634 1827.91 471.83 1829.19 467.615C1831.58 459.729 1827.32 453.917 1826.52 453.223C1822.48 450.61 1818.86 450.363 1816.06 452.51C1813.27 454.643 1812.3 458.318 1813.01 460.498C1813.18 461.038 1813.71 462.678 1816.72 462.762L1816.55 468.812C1811.92 468.682 1808.53 466.329 1807.25 462.356C1805.66 457.452 1807.87 451.15 1812.38 447.698C1817.28 443.954 1823.66 444.126 1829.88 448.178C1832.72 450.023 1838.21 458.742 1834.99 469.371C1831.73 480.093 1822.64 482.804 1816.97 482.804ZM639.413 453.237C639.408 453.237 639.408 453.241 639.403 453.241C639.403 453.241 639.408 453.241 639.413 453.237Z" fill="white"/>
<path d="M1820.25 743.181C1817.41 743.181 1814.72 742.287 1812.37 740.489C1807.86 737.037 1805.65 730.735 1807.24 725.831C1808.53 721.858 1811.92 719.506 1816.54 719.375L1816.71 725.426C1813.7 725.509 1813.17 727.154 1813 727.689C1812.29 729.869 1813.26 733.539 1816.05 735.677C1818.86 737.825 1822.47 737.578 1826.51 734.965C1827.31 734.271 1831.57 728.458 1829.18 720.568C1827.91 716.352 1825.34 713.548 1821.57 712.244C1818.56 711.206 1815.84 711.49 1815.81 711.49L1815.46 711.508H650.313L650.131 711.485C650.121 711.485 647.396 711.201 644.388 712.24C640.615 713.544 638.049 716.348 636.772 720.563C634.383 728.448 638.64 734.261 639.441 734.955C643.484 737.568 647.099 737.815 649.912 735.668C652.702 733.535 653.666 729.86 652.963 727.68C652.79 727.14 652.259 725.5 649.25 725.416L649.418 719.366C654.048 719.496 657.439 721.848 658.724 725.822C660.308 730.726 658.105 737.028 653.592 740.479C648.692 744.229 642.315 744.052 636.092 740C633.256 738.155 627.76 729.436 630.983 718.807C634.579 706.939 645.315 704.876 650.671 705.449H1815.29C1820.64 704.88 1831.38 706.939 1834.98 718.807C1838.2 729.436 1832.7 738.155 1829.87 740C1826.63 742.119 1823.35 743.176 1820.25 743.181ZM1826.57 734.937C1826.56 734.937 1826.56 734.941 1826.56 734.941C1826.56 734.941 1826.56 734.937 1826.57 734.937Z" fill="white"/>
</svg>
