<svg width="487.779" height="487.779" xmlns="http://www.w3.org/2000/svg" stroke="null" style="vector-effect: non-scaling-stroke;">

 <g stroke="null">
  <title stroke="null">background</title>
  <rect stroke="null" fill="none" id="canvas_background" height="402" width="582" y="-1" x="-1"/>
 </g>
 <g stroke="null">
  <title stroke="null">Layer 1</title>
  <g stroke="null" id="svg_1">
   <rect fill="#d89638" stroke="null" transform="matrix(0.29054414501716985,-0.6682845141919205,0.693922661928204,0.27980949961279045,-576.4073550156195,94.00528607174328) " id="svg_2" height="32.199081" width="43.868135" y="783.974997" x="110.631953"/>
   <g stroke="null" id="svg_3">
    <path fill="#d89638" stroke="null" id="svg_4" d="m92.439628,201.878186c-21.144905,-4.401101 -43.369457,4.045958 -57.033024,21.199421l-12.388688,28.762946c-2.955464,21.431113 6.53548,42.547807 24.70663,53.853102l44.715082,-103.815469z"/>
    <path fill="#d89638" stroke="null" id="svg_5" d="m48.250032,340.756169l20.559628,141.252435c0.286326,1.965747 2.032426,3.428607 4.09397,3.428607l74.311178,0c2.096,0 3.860542,-1.510999 4.105617,-3.515537l17.259605,-141.165505l-120.329998,0z"/>
   </g>
   <g stroke="null" transform="matrix(-0.4439464167100444,-0.5848962478795691,0.6073352781055901,-0.4275440646280721,-196.9153063900594,334.9964211938752) " id="svg_44">
    <g stroke="null" transform="rotate(-126.16584014892578 -214.91293334960935,545.7373046875) matrix(0.8961732439919432,0,0,0.8194187677681817,-969.4048155014607,-790.5132467653602) " id="svg_25">
     <g stroke="null" transform="matrix(-0.5288537439981901,-0.7234916728657904,0.661526840981604,-0.48355905082174294,321.211227207597,1708.9227496310386) " id="svg_26">
      <path fill="#d89638" stroke="null" id="svg_27" d="m1411.268209,100.605281c-5.081,-6.576 -10.335,-13.375 -15.218,-22.93c-4.824,-9.446 -11.219,-42.958 -12.754,-53.035c-0.053,-0.341 -0.181,-0.938 0.131,-1.313c2.064,-2.764 2.941,-5.859 2.941,-9.509c0.001,-8.62 -6.407,-15.633 -14.282,-15.633l-26.697,0c-7.876,0 -14.283,7.013 -14.283,15.633c0,3.646 0.78,6.6 2.841,9.362c0.263,0.335 0.275,1.122 0.223,1.469c-1.557,10.232 -7.932,43.604 -12.746,53.026c-4.882,9.556 -10.136,16.355 -15.217,22.931c-9.977,12.912 -18.593,24.063 -18.593,48.56l0,169.628c0,22.612 4.284,35.399 14.326,42.756c9.932,7.275 24.726,7.869 41.621,7.869c2.914,0 5.96,-0.021 9.146,-0.043c1.965,-0.015 3.983,-0.028 6.005,-0.038c2.071,0.01 4.089,0.023 6.056,0.038c3.186,0.021 6.232,0.043 9.146,0.043c16.897,0 31.693,-0.593 41.624,-7.867c10.04,-7.355 14.323,-20.144 14.323,-42.757l0,-169.63c0.001,-24.496 -8.615,-35.648 -18.593,-48.56zm7.594,218.189c0,18.456 -3.03,28.905 -9.824,33.884c-6.587,4.826 -17.426,5.741 -35.123,5.741c-2.889,0 -5.911,-0.021 -9.069,-0.043c-1.975,-0.015 -4,-0.028 -6.132,-0.038c-2.082,0.01 -4.109,0.023 -6.083,0.038c-3.158,0.021 -6.179,0.043 -9.068,0.043c-33.397,0 -44.947,-1.919 -44.947,-39.625l0,-169.629c0,-20.742 6.836,-29.589 16.298,-41.834c5.137,-6.649 10.96,-14.185 16.308,-24.651c6.225,-12.185 14.052,-54.78 14.292,-60.441c0,0 0.146,-1.942 -0.146,-2.598c-0.25,-0.563 -1.678,-1.913 -1.678,-1.913c-0.991,-0.884 -1.582,-2.346 -1.582,-3.91c0,-2.468 1.534,-4.633 3.283,-4.633l26.698,0c1.747,0 3.281,2.165 3.281,4.633c0,1.564 -0.592,3.025 -1.582,3.909c0,0 -1.387,1.196 -1.641,1.788s-0.195,2.502 -0.195,2.502c0.003,0.076 0.007,0.149 0.012,0.225c0.244,5.678 8.068,48.253 14.293,60.438c5.348,10.467 11.172,18.002 16.309,24.651c9.462,12.245 16.298,21.093 16.298,41.834l0,169.629l-0.002,0z"/>
      <path fill="#d89638" stroke="null" id="svg_28" d="m1308.402985,313.98359c0,35.675 14.809,33.879 49.123,33.719c34.316,0.16 49.125,1.956 49.125,-33.719l0,-128.363c0,0 0,-2 -3.667,-2"/>
      <polyline stroke="null" stroke-linecap="round" id="svg_45" points="347.2883605957031,-853.0638885498047 347.2883605957031,-851.2456512451172 347.2883605957031,-849.4275360107422 347.2883605957031,-845.7911224365234 347.2883605957031,-843.9729461669922 347.2883605957031,-842.1547698974609 347.2883605957031,-840.3365936279297 347.2883605957031,-836.7002410888672 345.47015380859375,-833.0638885498047 343.6519775390625,-829.4275360107422 338.1974182128906,-825.7911224365234 334.56103515625,-822.1547698974609 329.10650634765625,-818.5183563232422 321.833740234375,-813.0638885498047 318.1974182128906,-811.2456512451172 314.56103515625,-807.6092987060547 310.9247131347656,-805.7911224365234 305.47015380859375,-802.1547698974609 300.015625,-798.5183563232422 296.3792419433594,-794.8820648193359 290.9247131347656,-793.0638885498047 285.47015380859375,-789.4274749755859 281.83380126953125,-787.6092987060547 272.74285888671875,-783.9729461669922 270.9246826171875,-783.9729461669922 263.6519775390625,-782.1547088623047 261.833740234375,-780.3365936279297 254.56103515625,-778.5183563232422 250.9246826171875,-778.5183563232422 245.47015380859375,-776.7002410888672 241.833740234375,-776.7002410888672 240.01559448242188,-774.8820648193359 236.37924194335938,-774.8820648193359 223.65191650390625,-773.0638275146484 220.01559448242188,-771.2456512451172 216.37924194335938,-769.4274749755859 214.56103515625,-767.6092987060547 210.9246826171875,-765.7911224365234 209.10650634765625,-763.9729461669922 198.19741821289062,-754.8820648193359 192.74285888671875,-751.2456512451172 187.28829956054688,-749.4274749755859 183.65191650390625,-745.7910614013672 178.19735717773438,-742.1547088623047 174.56100463867188,-740.3365936279297 170.92465209960938,-738.5183563232422 169.1064453125,-734.8820037841797 167.28826904296875,-733.0638275146484 167.28826904296875,-731.2456512451172 165.4700927734375,-729.4274749755859 165.4700927734375,-729.4274749755859 163.65191650390625,-727.6092987060547 161.833740234375,-725.7910614013672 161.833740234375,-723.9729461669922 160.01556396484375,-723.9729461669922 160.01556396484375,-722.1547088623047 158.19735717773438,-720.3365936279297 158.19735717773438,-718.5183563232422 156.37918090820312,-718.5183563232422 154.56100463867188,-716.7001800537109 154.56100463867188,-714.8820648193359 152.7427978515625,-713.0638275146484 150.92465209960938,-713.0638275146484 147.28826904296875,-711.2456512451172 145.4700927734375,-709.4274749755859 141.833740234375,-707.6092987060547 140.01556396484375,-707.6092987060547 136.37918090820312,-705.7910614013672 134.56097412109375,-705.7910614013672 132.7427978515625,-703.9729461669922 129.1064453125,-702.1547088623047 125.4700927734375,-698.5183563232422 121.833740234375,-696.7002410888672 120.01553344726562,-691.2456512451172 118.19735717773438,-687.6092987060547 116.379150390625,-682.1547088623047 114.56097412109375,-678.5183563232422 114.56097412109375,-673.0638275146484 114.56097412109375,-662.1547088623047 114.56097412109375,-660.3365936279297 114.56097412109375,-653.0638275146484 116.379150390625,-647.6092987060547 118.19735717773438,-640.3365936279297 121.833740234375,-634.8820648193359 121.833740234375,-633.0638275146484 123.65191650390625,-629.4274749755859 123.65191650390625,-627.6092987060547 125.4700927734375,-625.7910614013672 125.4700927734375,-625.7910614013672 125.4700927734375,-623.9729461669922 125.4700927734375,-623.9729461669922 125.4700927734375,-623.9729461669922 123.65191650390625,-623.9729461669922 120.01553344726562,-623.9729461669922 118.19735717773438,-623.9729461669922 112.7427978515625,-636.7001800537109 109.1064453125,-647.6092987060547 107.28823852539062,-658.5183563232422 105.4700927734375,-665.7910614013672 105.4700927734375,-671.2456512451172 105.4700927734375,-674.8820648193359 105.4700927734375,-676.7002410888672 105.4700927734375,-680.3365936279297 105.4700927734375,-682.1547088623047 105.4700927734375,-683.9729461669922 105.4700927734375,-687.6092987060547 107.28823852539062,-691.2456512451172 109.1064453125,-696.7002410888672 110.92462158203125,-703.9729461669922 112.7427978515625,-709.4274749755859 114.56097412109375,-713.0638275146484 118.19735717773438,-716.7001800537109 120.01553344726562,-720.3365936279297 123.65191650390625,-723.9729461669922 123.65191650390625,-725.7910614013672 127.28826904296875,-727.6092987060547 127.28826904296875,-729.4274749755859 130.92465209960938,-733.0638275146484 130.92465209960938,-734.8820037841797 132.7427978515625,-738.5183563232422 " opacity="0.5" fill-opacity="null" stroke-opacity="null" stroke-width="null" fill="#d89638"/>
      <path stroke="null" id="svg_46" d="m220.015562,-842.154769c-41.81819,34.54546 -61.81819,80.00002 5.20147,86.11057c67.01966,6.11056 172.47423,-44.79853 125.45457,-83.63638c-47.01966,-38.83784 -88.83785,-37.01966 -130.65604,-2.47419z" fill-opacity="null" stroke-opacity="null" stroke-width="null" fill="#d89638"/>
      <path stroke="null" id="svg_47" d="m227.288291,-845.791138c-21.81819,41.81819 -14.54546,70.90911 -14.79854,69.74694c0.25308,1.16217 -14.29237,13.88945 -37.92874,30.25309c-23.63637,16.36364 32.72728,-9.09092 32.47419,-10.25309c0.25309,1.16217 151.16221,-84.29239 150.90913,-85.45456c0.25308,1.16217 -108.83785,-46.11057 -130.65604,-4.29238z" fill-opacity="null" stroke-opacity="null" stroke-width="null" fill="#d89638"/>
      <ellipse stroke="null" ry="26.92293" rx="39.230555" id="svg_48" cy="-807.224073" cx="247.592859" stroke-opacity="null" stroke-width="null" fill="#d89638"/>
      <ellipse stroke="null" ry="69.615005" rx="58.076606" id="svg_49" cy="-726.839896" cx="212.59305" stroke-opacity="null" stroke-width="NaN" fill="#d89638"/>
     </g>
    </g>
    <g stroke="null" transform="rotate(-126.16584014892578 -204.091583251953,2123.0810546875005) matrix(0.8961732439919432,0,0,0.8194187677681817,-969.4048155014607,-790.5132467653602) " id="svg_29"/>
    <g stroke="null" transform="rotate(-126.16584014892578 -204.091583251953,2123.0810546875005) matrix(0.8961732439919432,0,0,0.8194187677681817,-969.4048155014607,-790.5132467653602) " id="svg_30"/>
    <g stroke="null" transform="rotate(-126.16584014892578 -204.091583251953,2123.0810546875005) matrix(0.8961732439919432,0,0,0.8194187677681817,-969.4048155014607,-790.5132467653602) " id="svg_31"/>
    <g stroke="null" transform="rotate(-126.16584014892578 -204.091583251953,2123.0810546875005) matrix(0.8961732439919432,0,0,0.8194187677681817,-969.4048155014607,-790.5132467653602) " id="svg_32"/>
    <g stroke="null" transform="rotate(-126.16584014892578 -204.091583251953,2123.0810546875005) matrix(0.8961732439919432,0,0,0.8194187677681817,-969.4048155014607,-790.5132467653602) " id="svg_33"/>
    <g stroke="null" transform="rotate(-126.16584014892578 -204.091583251953,2123.0810546875005) matrix(0.8961732439919432,0,0,0.8194187677681817,-969.4048155014607,-790.5132467653602) " id="svg_34"/>
    <g stroke="null" transform="rotate(-126.16584014892578 -204.091583251953,2123.0810546875005) matrix(0.8961732439919432,0,0,0.8194187677681817,-969.4048155014607,-790.5132467653602) " id="svg_35"/>
    <g stroke="null" transform="rotate(-126.16584014892578 -204.091583251953,2123.0810546875005) matrix(0.8961732439919432,0,0,0.8194187677681817,-969.4048155014607,-790.5132467653602) " id="svg_36"/>
    <g stroke="null" transform="rotate(-126.16584014892578 -204.091583251953,2123.0810546875005) matrix(0.8961732439919432,0,0,0.8194187677681817,-969.4048155014607,-790.5132467653602) " id="svg_37"/>
    <g stroke="null" transform="rotate(-126.16584014892578 -204.091583251953,2123.0810546875005) matrix(0.8961732439919432,0,0,0.8194187677681817,-969.4048155014607,-790.5132467653602) " id="svg_38"/>
    <g stroke="null" transform="rotate(-126.16584014892578 -204.091583251953,2123.0810546875005) matrix(0.8961732439919432,0,0,0.8194187677681817,-969.4048155014607,-790.5132467653602) " id="svg_39"/>
    <g stroke="null" transform="rotate(-126.16584014892578 -204.091583251953,2123.0810546875005) matrix(0.8961732439919432,0,0,0.8194187677681817,-969.4048155014607,-790.5132467653602) " id="svg_40"/>
    <g stroke="null" transform="rotate(-126.16584014892578 -204.091583251953,2123.0810546875005) matrix(0.8961732439919432,0,0,0.8194187677681817,-969.4048155014607,-790.5132467653602) " id="svg_41"/>
    <g stroke="null" transform="rotate(-126.16584014892578 -204.091583251953,2123.0810546875005) matrix(0.8961732439919432,0,0,0.8194187677681817,-969.4048155014607,-790.5132467653602) " id="svg_42"/>
    <g stroke="null" transform="rotate(-126.16584014892578 -204.091583251953,2123.0810546875005) matrix(0.8961732439919432,0,0,0.8194187677681817,-969.4048155014607,-790.5132467653602) " id="svg_43"/>
   </g>
  </g>
  <g stroke="null" id="svg_6"/>
  <g stroke="null" id="svg_7"/>
  <g stroke="null" id="svg_8"/>
  <g stroke="null" id="svg_9"/>
  <g stroke="null" id="svg_10"/>
  <g stroke="null" id="svg_11"/>
  <g stroke="null" id="svg_12"/>
  <g stroke="null" id="svg_13"/>
  <g stroke="null" id="svg_14"/>
  <g stroke="null" id="svg_15"/>
  <g stroke="null" id="svg_16"/>
  <g stroke="null" id="svg_17"/>
  <g stroke="null" id="svg_18"/>
  <g stroke="null" id="svg_19"/>
  <g stroke="null" id="svg_20"/>
  <g stroke="null" id="svg_139">
   <rect stroke="null" style="vector-effect: non-scaling-stroke;" transform="matrix(0.19762733123985765,-0.45456529520107597,0.47200429303307656,0.1903256548527863,56.886499321013304,337.0621638982616) " id="svg_110" height="32.199081" width="43.868135" y="-770.721169" x="-892.895309"/>
   <g stroke="null" style="vector-effect: non-scaling-stroke;" id="svg_113">
    <path stroke="null" style="vector-effect: non-scaling-stroke;" id="svg_111" d="m-420.313298,570.707115c-14.38271,-2.99362 -29.49979,2.75205 -38.79371,14.41979l-8.42675,19.56447c-2.0103,14.57739 4.44541,28.94091 16.80538,36.63074l30.41508,-70.615z"/>
    <path stroke="null" style="vector-effect: non-scaling-stroke;" id="svg_112" d="m-450.370938,665.171535l13.9846,96.07952c0.19476,1.3371 1.38245,2.33213 2.78471,2.33213l50.54626,0c1.42569,0 2.62593,-1.02778 2.79262,-2.39126l11.73994,-96.02039l-81.84813,0z"/>
   </g>
  </g>
  <g stroke="null" transform="rotate(-160.63836669921875 -309.843994140625,94.30439758300781) matrix(0.5900882582664605,-0.6983845044478801,-0.8072627753073508,-0.51050105174617,1463.320444881882,889.4652691079876) " id="svg_138">
   <g stroke="null" transform="rotate(-126.16584014892578 -645.8802490234375,1011.7429809570312) matrix(0.8961732439919432,0,0,0.8194187677681817,-969.4048155014607,-790.5132467653602) " id="svg_148">
    <g stroke="null" transform="matrix(-0.5288537439981901,-0.7234916728657904,0.661526840981604,-0.48355905082174294,321.211227207597,1708.9227496310386) " id="svg_147">
     <path fill="#d89638" stroke="null" id="svg_140" d="m1215.623888,-782.75177c-5.081,-6.576 -10.335,-13.375 -15.218,-22.93c-4.824,-9.446 -11.219,-42.958 -12.754,-53.035c-0.053,-0.341 -0.181,-0.938 0.131,-1.313c2.064,-2.764 2.941,-5.859 2.941,-9.509c0.001,-8.62 -6.407,-15.633 -14.282,-15.633l-26.697,0c-7.876,0 -14.283,7.013 -14.283,15.633c0,3.646 0.78,6.6 2.841,9.362c0.263,0.335 0.275,1.122 0.223,1.469c-1.557,10.232 -7.932,43.604 -12.746,53.026c-4.882,9.556 -10.136,16.355 -15.217,22.931c-9.977,12.912 -18.593,24.063 -18.593,48.56l0,169.628c0,22.612 4.284,35.399 14.326,42.756c9.932,7.275 24.726,7.869 41.621,7.869c2.914,0 5.96,-0.021 9.146,-0.043c1.965,-0.015 3.983,-0.028 6.005,-0.038c2.071,0.01 4.089,0.023 6.056,0.038c3.186,0.021 6.232,0.043 9.146,0.043c16.897,0 31.693,-0.593 41.624,-7.867c10.04,-7.355 14.323,-20.144 14.323,-42.757l0,-169.63c0.001,-24.496 -8.615,-35.648 -18.593,-48.56zm7.594,218.189c0,18.456 -3.03,28.905 -9.824,33.884c-6.587,4.826 -17.426,5.741 -35.123,5.741c-2.889,0 -5.911,-0.021 -9.069,-0.043c-1.975,-0.015 -4,-0.028 -6.132,-0.038c-2.082,0.01 -4.109,0.023 -6.083,0.038c-3.158,0.021 -6.179,0.043 -9.068,0.043c-33.397,0 -44.947,-1.919 -44.947,-39.625l0,-169.629c0,-20.742 6.836,-29.589 16.298,-41.834c5.137,-6.649 10.96,-14.185 16.308,-24.651c6.225,-12.185 14.052,-54.78 14.292,-60.441c0,0 0.146,-1.942 -0.146,-2.598c-0.25,-0.563 -1.678,-1.913 -1.678,-1.913c-0.991,-0.884 -1.582,-2.346 -1.582,-3.91c0,-2.468 1.534,-4.633 3.283,-4.633l26.698,0c1.747,0 3.281,2.165 3.281,4.633c0,1.564 -0.592,3.025 -1.582,3.909c0,0 -1.387,1.196 -1.641,1.788s-0.195,2.502 -0.195,2.502c0.003,0.076 0.007,0.149 0.012,0.225c0.244,5.678 8.068,48.253 14.293,60.438c5.348,10.467 11.172,18.002 16.309,24.651c9.462,12.245 16.298,21.093 16.298,41.834l0,169.629l-0.002,0z"/>
     <path fill="#d89638" stroke="null" id="svg_141" d="m1112.758658,-569.37346c0,35.675 14.809,33.879 49.123,33.719c34.316,0.16 49.125,1.956 49.125,-33.719l0,-128.363c0,0 0,-2 -3.667,-2"/>
     <polyline stroke="null" stroke-linecap="round" id="svg_142" points="151.6441946029663,-1736.4207382202148 151.6441946029663,-1734.6029891967773 151.6441946029663,-1732.7846298217773 151.6441946029663,-1729.1482772827148 151.6441946029663,-1727.3299179077148 151.6441946029663,-1725.5120468139648 151.6441946029663,-1723.6936874389648 151.6441946029663,-1720.0574569702148 149.82578945159912,-1716.4207382202148 148.00765895843506,-1712.7846298217773 142.5531301498413,-1709.1482772827148 138.91696071624756,-1705.5120468139648 133.46237087249756,-1701.8754501342773 126.18943691253662,-1696.4207382202148 122.55313014984131,-1694.6029891967773 118.91696071624756,-1690.9661483764648 115.28048610687256,-1689.1482772827148 109.82578182220459,-1685.5120468139648 104.37143611907959,-1681.8754501342773 100.73477840423584,-1678.2390975952148 95.28049373626709,-1676.4207382202148 89.82578182220459,-1672.7846298217773 86.18942928314209,-1670.9661483764648 77.09885311126709,-1667.3299179077148 75.28049373626709,-1667.3299179077148 68.00766658782959,-1665.5120468139648 66.18942928314209,-1663.6936874389648 58.91696834564209,-1661.8754501342773 55.28049373626709,-1661.8754501342773 49.82578182220459,-1660.0574569702148 46.18942928314209,-1660.0574569702148 44.37119197845459,-1658.2390975952148 40.73477840423584,-1658.2390975952148 28.00766658782959,-1656.4207382202148 24.37119197845459,-1654.6029891967773 20.73477840423584,-1652.7846298217773 18.91696834564209,-1650.9661483764648 15.28049373626709,-1649.1482772827148 13.46237850189209,-1647.3299179077148 2.55313777923584,-1638.2390975952148 -2.90114688873291,-1634.6029891967773 -8.35598087310791,-1632.7846298217773 -11.99221134185791,-1629.1482772827148 -17.44686222076416,-1625.5120468139648 -21.08327579498291,-1623.6936874389648 -24.71950626373291,-1621.8754501342773 -26.53762149810791,-1618.2390975952148 -28.35598087310791,-1616.4206161499023 -28.35598087310791,-1614.6029891967773 -30.17415714263916,-1612.7846298217773 -30.17415714263916,-1612.7846298217773 -31.99221134185791,-1610.9660263061523 -33.81057071685791,-1609.1482772827148 -33.81057071685791,-1607.3299179077148 -35.62874698638916,-1607.3299179077148 -35.62874698638916,-1605.5120468139648 -37.44686222076416,-1603.6936874389648 -37.44686222076416,-1601.8754501342773 -39.26522159576416,-1601.8754501342773 -41.08327579498291,-1600.0573348999023 -41.08327579498291,-1598.2390975952148 -42.90120792388916,-1596.4206161499023 -44.71956729888916,-1596.4206161499023 -48.35604190826416,-1594.6029891967773 -50.17415714263916,-1592.7846298217773 -53.81063175201416,-1590.9660263061523 -55.62874698638916,-1590.9660263061523 -59.26522159576416,-1589.1482772827148 -61.08333683013916,-1589.1482772827148 -62.90120792388916,-1587.3299179077148 -66.53768253326416,-1585.5120468139648 -70.17415714263916,-1581.8754501342773 -73.81069278717041,-1580.0573348999023 -75.62880802154541,-1574.6023788452148 -77.44686222076416,-1570.9660263061523 -79.26528263092041,-1565.5120468139648 -81.08339786529541,-1561.8754501342773 -81.08339786529541,-1556.4206161499023 -81.08339786529541,-1545.5120468139648 -81.08339786529541,-1543.6936874389648 -81.08339786529541,-1536.4207382202148 -79.26528263092041,-1530.9661483764648 -77.44686222076416,-1523.6936874389648 -73.81069278717041,-1518.2390975952148 -73.81069278717041,-1516.4207382202148 -71.99227237701416,-1512.7845077514648 -71.99227237701416,-1510.9661483764648 -70.17415714263916,-1509.1482772827148 -70.17415714263916,-1509.1482772827148 -70.17415714263916,-1507.3299179077148 -70.17415714263916,-1507.3299179077148 -70.17415714263916,-1507.3299179077148 -71.99227237701416,-1507.3299179077148 -75.62880802154541,-1507.3299179077148 -77.44686222076416,-1507.3299179077148 -82.90126895904541,-1520.0574569702148 -86.53774356842041,-1530.9661483764648 -88.35610294342041,-1541.8753280639648 -90.17421817779541,-1549.1482772827148 -90.17421817779541,-1554.6029891967773 -90.17421817779541,-1558.2390975952148 -90.17421817779541,-1560.0573348999023 -90.17421817779541,-1563.6936874389648 -90.17421817779541,-1565.5120468139648 -90.17421817779541,-1567.3299179077148 -90.17421817779541,-1570.9660263061523 -88.35610294342041,-1574.6023788452148 -86.53774356842041,-1580.0573348999023 -84.71962833404541,-1587.3299179077148 -82.90126895904541,-1592.7846298217773 -81.08339786529541,-1596.4206161499023 -77.44686222076416,-1600.0573348999023 -75.62880802154541,-1603.6936874389648 -71.99227237701416,-1607.3299179077148 -71.99227237701416,-1609.1482772827148 -68.35604190826416,-1610.9660263061523 -68.35604190826416,-1612.7846298217773 -64.71956729888916,-1616.4206161499023 -64.71956729888916,-1618.2390975952148 -62.90120792388916,-1621.8754501342773 " opacity="0.5" fill-opacity="null" stroke-opacity="null" stroke-width="null" fill="#d89638"/>
     <path stroke="null" id="svg_143" d="m24.371238,-1725.51182c-41.81819,34.54546 -61.81819,80.00002 5.20147,86.11057c67.01966,6.11056 172.47423,-44.79853 125.45457,-83.63638c-47.01966,-38.83784 -88.83785,-37.01966 -130.65604,-2.47419z" fill-opacity="null" stroke-opacity="null" stroke-width="null" fill="#d89638"/>
     <path stroke="null" id="svg_144" d="m31.643968,-1729.14819c-21.81819,41.81819 -14.54546,70.90911 -14.79854,69.74694c0.25308,1.16217 -14.29237,13.88945 -37.92874,30.25309c-23.63637,16.36364 32.72728,-9.09092 32.47419,-10.25309c0.25309,1.16217 151.16221,-84.29239 150.90913,-85.45456c0.25308,1.16217 -108.83785,-46.11057 -130.65604,-4.29238z" fill-opacity="null" stroke-opacity="null" stroke-width="null" fill="#d89638"/>
     <ellipse stroke="null" ry="26.92293" rx="39.230555" id="svg_145" cy="-1690.581121" cx="51.948539" stroke-opacity="null" stroke-width="null" fill="#d89638"/>
     <ellipse stroke="null" ry="69.615005" rx="58.076606" id="svg_146" cy="-1610.196944" cx="16.94873" stroke-opacity="null" stroke-width="NaN" fill="#d89638"/>
    </g>
   </g>
   <g stroke="null" transform="rotate(-126.16584014892578 -635.0588378906247,2589.0866699218755) matrix(0.8961732439919432,0,0,0.8194187677681817,-969.4048155014607,-790.5132467653602) " id="svg_149"/>
   <g stroke="null" transform="rotate(-126.16584014892578 -635.0588378906247,2589.0866699218755) matrix(0.8961732439919432,0,0,0.8194187677681817,-969.4048155014607,-790.5132467653602) " id="svg_150"/>
   <g stroke="null" transform="rotate(-126.16584014892578 -635.0588378906247,2589.0866699218755) matrix(0.8961732439919432,0,0,0.8194187677681817,-969.4048155014607,-790.5132467653602) " id="svg_151"/>
   <g stroke="null" transform="rotate(-126.16584014892578 -635.0588378906247,2589.0866699218755) matrix(0.8961732439919432,0,0,0.8194187677681817,-969.4048155014607,-790.5132467653602) " id="svg_152"/>
   <g stroke="null" transform="rotate(-126.16584014892578 -635.0588378906247,2589.0866699218755) matrix(0.8961732439919432,0,0,0.8194187677681817,-969.4048155014607,-790.5132467653602) " id="svg_153"/>
   <g stroke="null" transform="rotate(-126.16584014892578 -635.0588378906247,2589.0866699218755) matrix(0.8961732439919432,0,0,0.8194187677681817,-969.4048155014607,-790.5132467653602) " id="svg_154"/>
   <g stroke="null" transform="rotate(-126.16584014892578 -635.0588378906247,2589.0866699218755) matrix(0.8961732439919432,0,0,0.8194187677681817,-969.4048155014607,-790.5132467653602) " id="svg_155"/>
   <g stroke="null" transform="rotate(-126.16584014892578 -635.0588378906247,2589.0866699218755) matrix(0.8961732439919432,0,0,0.8194187677681817,-969.4048155014607,-790.5132467653602) " id="svg_156"/>
   <g stroke="null" transform="rotate(-126.16584014892578 -635.0588378906247,2589.0866699218755) matrix(0.8961732439919432,0,0,0.8194187677681817,-969.4048155014607,-790.5132467653602) " id="svg_157"/>
   <g stroke="null" transform="rotate(-126.16584014892578 -635.0588378906247,2589.0866699218755) matrix(0.8961732439919432,0,0,0.8194187677681817,-969.4048155014607,-790.5132467653602) " id="svg_158"/>
   <g stroke="null" transform="rotate(-126.16584014892578 -635.0588378906247,2589.0866699218755) matrix(0.8961732439919432,0,0,0.8194187677681817,-969.4048155014607,-790.5132467653602) " id="svg_159"/>
   <g stroke="null" transform="rotate(-126.16584014892578 -635.0588378906247,2589.0866699218755) matrix(0.8961732439919432,0,0,0.8194187677681817,-969.4048155014607,-790.5132467653602) " id="svg_160"/>
   <g stroke="null" transform="rotate(-126.16584014892578 -635.0588378906247,2589.0866699218755) matrix(0.8961732439919432,0,0,0.8194187677681817,-969.4048155014607,-790.5132467653602) " id="svg_161"/>
   <g stroke="null" transform="rotate(-126.16584014892578 -635.0588378906247,2589.0866699218755) matrix(0.8961732439919432,0,0,0.8194187677681817,-969.4048155014607,-790.5132467653602) " id="svg_162"/>
   <g stroke="null" transform="rotate(-126.16584014892578 -635.0588378906247,2589.0866699218755) matrix(0.8961732439919432,0,0,0.8194187677681817,-969.4048155014607,-790.5132467653602) " id="svg_163"/>
  </g>
  <path stroke="null" id="svg_166" d="m140.996897,402.045836c31.07227,-71.51829 13.52352,-21.08801 12.93451,-125.02485c-0.589,-103.93684 -44.00679,196.54314 -12.93451,125.02485z" stroke-opacity="null" stroke-width="NaN" fill="#d89638"/>
 </g>
</svg>