<svg width="50" height="50" xmlns="http://www.w3.org/2000/svg">

 <g>
  <title>background</title>
  <rect fill="none" id="canvas_background" height="402" width="582" y="-1" x="-1"/>
 </g>
 <g>
  <title>Layer 1</title>
  <path fill="#d89638" id="svg_1" d="m22.02344,2.00195c-0.86963,-0.00275 -1.98377,0.07821 -3.00977,0.40821c-2.05,0.66 -3.80686,2.33329 -3.88086,2.40429c-0.247,0.237 -0.35511,0.58392 -0.28711,0.91993l1.64063,8.04882l11.16992,-3.72265l-3.31641,-7.38282c-0.14,-0.313 -0.43248,-0.53207 -0.77148,-0.58007c-0.0505,-0.007 -0.6753,-0.09296 -1.54492,-0.09571zm17.92187,5.98828a1.0001,1.0001 0 0 0 -0.7539,1.59961c0,0 0.90335,1.21717 1.86718,3.92579c0.96384,2.70861 1.94141,6.84113 1.94141,12.48437a1.0001,1.0001 0 1 0 2,0c0,-5.87476 -1.02243,-10.24241 -2.05859,-13.1543c-1.03617,-2.91188 -2.13282,-4.43554 -2.13282,-4.43554a1.0001,1.0001 0 0 0 -0.86328,-0.41993zm-9.73828,3.32813l-15.1914,5.06445l-2.83204,4.04297c-0.01,0.015 -0.01443,0.03383 -0.02343,0.04883c-0.022,0.035 -0.03574,0.07042 -0.05274,0.10742c-0.029,0.063 -0.04945,0.12931 -0.06445,0.19531l0.68555,-0.19726l21.9707,-6.99024l0.97851,-0.31445c-0.01,-0.006 -0.01739,-0.01448 -0.02539,-0.02148c-0.065,-0.057 -0.13879,-0.10163 -0.21679,-0.14063c-0.028,-0.014 -0.05303,-0.03292 -0.08203,-0.04492c-0.011,-0.004 -0.01925,-0.01163 -0.03125,-0.01563l-5.11524,-1.73437zm6.22852,3.81445l-1.12891,0.36328l-22.00391,7l-0.76757,0.22071c1.128,2.964 4.52593,10.64512 13.71093,24.82812c0.188,0.29 0.50785,0.45508 0.83985,0.45508c0.106,0 0.2114,-0.01773 0.3164,-0.05273l11.91602,-4c0.424,-0.143 0.70069,-0.5491 0.67969,-0.9961c-0.812,-16.699 -2.6585,-24.75836 -3.5625,-27.81836zm-30.45117,1.85352a1.0001,1.0001 0 0 0 -0.98438,1.01367c0,10.65852 6.25391,17.66602 6.25391,17.66602a1.00012,1.00012 0 1 0 1.49218,-1.33204c0,0 -5.74609,-6.4545 -5.74609,-16.33398a1.0001,1.0001 0 0 0 -1.01562,-1.01367z"/>
 </g>
</svg>