<svg width="580" height="400" xmlns="http://www.w3.org/2000/svg">
 <!-- Created with Method Draw - http://github.com/duopixel/Method-Draw/ -->

 <g>
  <title>Layer 1</title>
  <g stroke="null" id="svg_22">
   <g stroke="null" transform="matrix(0.8173866011667476,0,0,0.8173866011667476,-2712.7767645677714,-1850.4266379114329) " id="svg_5">
    <path stroke="null" fill="#d89638" id="svg_6" d="m3907.435117,2380.087254c0,-1.8 -0.4,-3.6 -1.2,-5.3c-1.6,-3.4 -4.7,-5.7 -8.1,-6.4l-203.7,-98.8c-3.3,-1.6 -7.2,-1.6 -10.5,0l-205.7,99.7c-4,1.9 -6.6,5.9 -6.8,10.4l0,0.1c0,0.1 0,0.2 0,0.4l0,250.2c0,4.6 2.6,8.8 6.8,10.8l205.7,99.7c0.1,0 0.1,0 0.2,0.1c0.3,0.1 0.6,0.2 0.9,0.4c0.1,0 0.2,0.1 0.4,0.1c0.3,0.1 0.6,0.2 0.9,0.3c0.1,0 0.2,0.1 0.3,0.1c0.3,0.1 0.7,0.1 1,0.2c0.1,0 0.2,0 0.3,0c0.4,0 0.9,0.1 1.3,0.1c0.4,0 0.9,0 1.3,-0.1c0.1,0 0.2,0 0.3,0c0.3,0 0.7,-0.1 1,-0.2c0.1,0 0.2,-0.1 0.3,-0.1c0.3,-0.1 0.6,-0.2 0.9,-0.3c0.1,0 0.2,-0.1 0.4,-0.1c0.3,-0.1 0.6,-0.2 0.9,-0.4c0.1,0 0.1,0 0.2,-0.1l206.3,-100c4.1,-2 6.8,-6.2 6.8,-10.8l0,-249.7c-0.2,-0.1 -0.2,-0.2 -0.2,-0.3zm-218.3,-86.4l178.4,86.5l-65.7,31.9l-178.4,-86.5l65.7,-31.9zm0,173l-178.4,-86.5l85.2,-41.3l178.4,86.5l-85.2,41.3zm-193.7,-67.2l181.7,88.1l0,223.3l-181.7,-88.1l0,-223.3zm205.7,311.4l0,-223.3l85.3,-41.4l0,58.4c0,6.6 5.4,12 12,12s12,-5.4 12,-12l0,-70.1l73,-35.4l0,223.3l-182.3,88.5z"/>
   </g>
   <g stroke="null" transform="matrix(0.8173866011667476,0,0,0.8173866011667476,-2712.7767645677714,-1850.4266379114329) " id="svg_7"/>
   <g stroke="null" transform="matrix(0.8173866011667476,0,0,0.8173866011667476,-2712.7767645677714,-1850.4266379114329) " id="svg_8"/>
   <g stroke="null" transform="matrix(0.8173866011667476,0,0,0.8173866011667476,-2712.7767645677714,-1850.4266379114329) " id="svg_9"/>
   <g stroke="null" transform="matrix(0.8173866011667476,0,0,0.8173866011667476,-2712.7767645677714,-1850.4266379114329) " id="svg_10"/>
   <g stroke="null" transform="matrix(0.8173866011667476,0,0,0.8173866011667476,-2712.7767645677714,-1850.4266379114329) " id="svg_11"/>
   <g stroke="null" transform="matrix(0.8173866011667476,0,0,0.8173866011667476,-2712.7767645677714,-1850.4266379114329) " id="svg_12"/>
   <g stroke="null" transform="matrix(0.8173866011667476,0,0,0.8173866011667476,-2712.7767645677714,-1850.4266379114329) " id="svg_13"/>
   <g stroke="null" transform="matrix(0.8173866011667476,0,0,0.8173866011667476,-2712.7767645677714,-1850.4266379114329) " id="svg_14"/>
   <g stroke="null" transform="matrix(0.8173866011667476,0,0,0.8173866011667476,-2712.7767645677714,-1850.4266379114329) " id="svg_15"/>
   <g stroke="null" transform="matrix(0.8173866011667476,0,0,0.8173866011667476,-2712.7767645677714,-1850.4266379114329) " id="svg_16"/>
   <g stroke="null" transform="matrix(0.8173866011667476,0,0,0.8173866011667476,-2712.7767645677714,-1850.4266379114329) " id="svg_17"/>
   <g stroke="null" transform="matrix(0.8173866011667476,0,0,0.8173866011667476,-2712.7767645677714,-1850.4266379114329) " id="svg_18"/>
   <g stroke="null" transform="matrix(0.8173866011667476,0,0,0.8173866011667476,-2712.7767645677714,-1850.4266379114329) " id="svg_19"/>
   <g stroke="null" transform="matrix(0.8173866011667476,0,0,0.8173866011667476,-2712.7767645677714,-1850.4266379114329) " id="svg_20"/>
   <g stroke="null" transform="matrix(0.8173866011667476,0,0,0.8173866011667476,-2712.7767645677714,-1850.4266379114329) " id="svg_21"/>
  </g>
 </g>
</svg>